<mxfile host="app.diagrams.net" modified="2021-08-02T07:34:18.205Z" agent="5.0 (X11; Linux x86_64) AppleWebKit/537.36 (KHTML, like Gecko) Chrome/92.0.4515.107 Safari/537.36" etag="H8r4_iuTipAFLMftTIGk" version="14.9.3" type="github">
  <diagram id="c5l3uwP8JbJK1JwCp4mX" name="Page-1">
    <mxGraphModel dx="2168" dy="1582" grid="1" gridSize="10" guides="1" tooltips="1" connect="1" arrows="1" fold="1" page="1" pageScale="1" pageWidth="100" pageHeight="100" math="0" shadow="0">
      <root>
        <mxCell id="0" />
        <mxCell id="1" parent="0" />
        <mxCell id="yqy9BGV4hBucA23t-8WJ-74" style="edgeStyle=orthogonalEdgeStyle;rounded=0;orthogonalLoop=1;jettySize=auto;html=1;exitX=0.998;exitY=0.673;exitDx=0;exitDy=0;entryX=0.211;entryY=-0.2;entryDx=0;entryDy=0;entryPerimeter=0;exitPerimeter=0;" parent="1" source="8mD3NkDmg14V1RQgCwuK-15" target="yqy9BGV4hBucA23t-8WJ-73" edge="1">
          <mxGeometry relative="1" as="geometry" />
        </mxCell>
        <mxCell id="yqy9BGV4hBucA23t-8WJ-85" style="edgeStyle=orthogonalEdgeStyle;rounded=0;orthogonalLoop=1;jettySize=auto;html=1;exitX=1;exitY=0.5;exitDx=0;exitDy=0;" parent="1" source="yqy9BGV4hBucA23t-8WJ-82" target="yqy9BGV4hBucA23t-8WJ-84" edge="1">
          <mxGeometry relative="1" as="geometry">
            <mxPoint x="430" y="30" as="targetPoint" />
            <Array as="points">
              <mxPoint x="240" y="-515" />
              <mxPoint x="240" y="-330" />
              <mxPoint x="400" y="-330" />
              <mxPoint x="400" y="130" />
            </Array>
          </mxGeometry>
        </mxCell>
        <mxCell id="8mD3NkDmg14V1RQgCwuK-15" value="" style="rounded=0;whiteSpace=wrap;html=1;" parent="1" vertex="1">
          <mxGeometry x="-240" y="-630" width="440" height="340" as="geometry" />
        </mxCell>
        <mxCell id="j8qgsm1ebVR-KhvxwdN_-13" style="edgeStyle=orthogonalEdgeStyle;rounded=0;orthogonalLoop=1;jettySize=auto;html=1;entryX=0.5;entryY=0;entryDx=0;entryDy=0;" parent="1" source="8mD3NkDmg14V1RQgCwuK-15" target="8mD3NkDmg14V1RQgCwuK-22" edge="1">
          <mxGeometry relative="1" as="geometry">
            <Array as="points">
              <mxPoint x="-100" y="-180" />
              <mxPoint x="575" y="-180" />
            </Array>
            <mxPoint x="-100" y="-310" as="sourcePoint" />
          </mxGeometry>
        </mxCell>
        <mxCell id="ksUqTmXqopnTyDlyO0wy-12" style="edgeStyle=orthogonalEdgeStyle;rounded=0;orthogonalLoop=1;jettySize=auto;html=1;exitX=0.045;exitY=1.007;exitDx=0;exitDy=0;entryX=0.857;entryY=-0.05;entryDx=0;entryDy=0;entryPerimeter=0;exitPerimeter=0;" parent="1" source="8mD3NkDmg14V1RQgCwuK-15" target="j8qgsm1ebVR-KhvxwdN_-8" edge="1">
          <mxGeometry relative="1" as="geometry">
            <mxPoint x="-220" y="-310" as="sourcePoint" />
          </mxGeometry>
        </mxCell>
        <mxCell id="ksUqTmXqopnTyDlyO0wy-14" value="&lt;p dir=&quot;ltr&quot; style=&quot;font-size: 10px ; background-color: rgb(248 , 249 , 250) ; line-height: 1.38 ; margin-left: 36pt ; margin-top: 0pt ; margin-bottom: 0pt&quot;&gt;&lt;span style=&quot;font-family: &amp;#34;arial&amp;#34; ; vertical-align: baseline&quot;&gt;PATCH /updatelasSeen/{userId}/&lt;/span&gt;&lt;/p&gt;&lt;span style=&quot;font-size: 10px ; background-color: rgb(248 , 249 , 250) ; font-family: &amp;#34;arial&amp;#34; ; vertical-align: baseline&quot;&gt;&lt;span class=&quot;Apple-tab-span&quot;&gt;&lt;/span&gt;&lt;/span&gt;&lt;span style=&quot;font-size: 10px ; background-color: rgb(248 , 249 , 250) ; font-family: &amp;#34;arial&amp;#34; ; vertical-align: baseline&quot;&gt;&lt;span class=&quot;Apple-tab-span&quot;&gt;&lt;/span&gt;&lt;/span&gt;&lt;span style=&quot;font-size: 10px ; background-color: rgb(248 , 249 , 250) ; font-family: &amp;#34;arial&amp;#34; ; vertical-align: baseline&quot;&gt;{timestamp}&lt;/span&gt;" style="edgeLabel;html=1;align=center;verticalAlign=middle;resizable=0;points=[];" parent="ksUqTmXqopnTyDlyO0wy-12" vertex="1" connectable="0">
          <mxGeometry x="0.4218" y="4" relative="1" as="geometry">
            <mxPoint x="-14" y="-17" as="offset" />
          </mxGeometry>
        </mxCell>
        <mxCell id="8mD3NkDmg14V1RQgCwuK-20" value="" style="rounded=0;whiteSpace=wrap;html=1;" parent="1" vertex="1">
          <mxGeometry x="450" y="70" width="240" height="80" as="geometry" />
        </mxCell>
        <mxCell id="8mD3NkDmg14V1RQgCwuK-21" value="&lt;span id=&quot;docs-internal-guid-10599e6d-7fff-4790-dc28-b607fd8e8ca6&quot;&gt;&lt;span style=&quot;font-size: 11pt ; font-family: &amp;#34;arial&amp;#34; ; background-color: transparent ; vertical-align: baseline&quot;&gt;UserSessionTokens(user_id, aes_encrypted(session_token), device_type, device_name, time_to_live)&lt;/span&gt;&lt;/span&gt;" style="shape=datastore;whiteSpace=wrap;html=1;" parent="1" vertex="1">
          <mxGeometry x="460" y="160" width="220" height="120" as="geometry" />
        </mxCell>
        <mxCell id="8mD3NkDmg14V1RQgCwuK-22" value="Authentication Service" style="text;html=1;strokeColor=none;fillColor=none;align=center;verticalAlign=middle;whiteSpace=wrap;rounded=0;" parent="1" vertex="1">
          <mxGeometry x="475" y="72.5" width="200" height="20" as="geometry" />
        </mxCell>
        <mxCell id="8mD3NkDmg14V1RQgCwuK-24" value="" style="rounded=0;whiteSpace=wrap;html=1;" parent="1" vertex="1">
          <mxGeometry x="870" y="-60" width="240" height="80" as="geometry" />
        </mxCell>
        <mxCell id="8mD3NkDmg14V1RQgCwuK-25" value="&lt;span id=&quot;docs-internal-guid-ea665ca4-7fff-912b-90b4-c4b4e14d5aea&quot;&gt;&lt;p dir=&quot;ltr&quot; style=&quot;line-height: 1.38 ; margin-top: 0pt ; margin-bottom: 0pt&quot;&gt;&lt;span style=&quot;font-size: 11pt ; font-family: &amp;#34;arial&amp;#34; ; background-color: transparent ; vertical-align: baseline&quot;&gt;Users(Id, mobile_number, profile_status, profile_pic_url, geo_code)&lt;/span&gt;&lt;/p&gt;&lt;div&gt;&lt;span style=&quot;font-size: 11pt ; font-family: &amp;#34;arial&amp;#34; ; background-color: transparent ; vertical-align: baseline&quot;&gt;&lt;br&gt;&lt;/span&gt;&lt;/div&gt;&lt;/span&gt;" style="shape=datastore;whiteSpace=wrap;html=1;" parent="1" vertex="1">
          <mxGeometry x="880" y="55" width="220" height="120" as="geometry" />
        </mxCell>
        <mxCell id="8mD3NkDmg14V1RQgCwuK-26" value="User Service" style="text;html=1;strokeColor=none;fillColor=none;align=center;verticalAlign=middle;whiteSpace=wrap;rounded=0;" parent="1" vertex="1">
          <mxGeometry x="890" y="-60" width="200" height="20" as="geometry" />
        </mxCell>
        <mxCell id="8mD3NkDmg14V1RQgCwuK-28" style="edgeStyle=orthogonalEdgeStyle;rounded=0;orthogonalLoop=1;jettySize=auto;html=1;exitX=0.5;exitY=0;exitDx=0;exitDy=0;entryX=1;entryY=1;entryDx=0;entryDy=0;" parent="1" source="8mD3NkDmg14V1RQgCwuK-27" target="8mD3NkDmg14V1RQgCwuK-20" edge="1">
          <mxGeometry relative="1" as="geometry" />
        </mxCell>
        <mxCell id="8mD3NkDmg14V1RQgCwuK-29" style="edgeStyle=orthogonalEdgeStyle;rounded=0;orthogonalLoop=1;jettySize=auto;html=1;exitX=1;exitY=0;exitDx=0;exitDy=0;entryX=0;entryY=1;entryDx=0;entryDy=0;" parent="1" source="8mD3NkDmg14V1RQgCwuK-27" target="8mD3NkDmg14V1RQgCwuK-24" edge="1">
          <mxGeometry relative="1" as="geometry" />
        </mxCell>
        <mxCell id="8mD3NkDmg14V1RQgCwuK-27" value="" style="rounded=0;whiteSpace=wrap;html=1;" parent="1" vertex="1">
          <mxGeometry x="570" y="420" width="270" height="270" as="geometry" />
        </mxCell>
        <mxCell id="8mD3NkDmg14V1RQgCwuK-33" value="" style="rounded=0;whiteSpace=wrap;html=1;" parent="1" vertex="1">
          <mxGeometry x="602" y="897.5" width="240" height="175" as="geometry" />
        </mxCell>
        <mxCell id="8mD3NkDmg14V1RQgCwuK-34" value="&lt;span id=&quot;docs-internal-guid-f6a25d73-7fff-9e08-d0c2-d61919e610c9&quot;&gt;&lt;span style=&quot;font-size: 11pt ; font-family: &amp;#34;arial&amp;#34; ; background-color: transparent ; vertical-align: baseline&quot;&gt;OTP(mobile_number, otp, ttl)&lt;/span&gt;&lt;/span&gt;" style="shape=datastore;whiteSpace=wrap;html=1;" parent="1" vertex="1">
          <mxGeometry x="642" y="1005" width="160" height="57.5" as="geometry" />
        </mxCell>
        <mxCell id="8mD3NkDmg14V1RQgCwuK-36" value="OTP Service" style="text;html=1;strokeColor=none;fillColor=none;align=center;verticalAlign=middle;whiteSpace=wrap;rounded=0;" parent="1" vertex="1">
          <mxGeometry x="677" y="907.5" width="90" height="20" as="geometry" />
        </mxCell>
        <mxCell id="8mD3NkDmg14V1RQgCwuK-43" value="" style="rounded=0;whiteSpace=wrap;html=1;" parent="1" vertex="1">
          <mxGeometry x="970" y="880" width="420" height="230" as="geometry" />
        </mxCell>
        <mxCell id="8mD3NkDmg14V1RQgCwuK-48" style="edgeStyle=orthogonalEdgeStyle;rounded=0;orthogonalLoop=1;jettySize=auto;html=1;exitX=1;exitY=0.5;exitDx=0;exitDy=0;entryX=-0.005;entryY=0.547;entryDx=0;entryDy=0;entryPerimeter=0;" parent="1" source="8mD3NkDmg14V1RQgCwuK-44" target="8mD3NkDmg14V1RQgCwuK-45" edge="1">
          <mxGeometry relative="1" as="geometry" />
        </mxCell>
        <mxCell id="8mD3NkDmg14V1RQgCwuK-44" value="RabbitMQ" style="rounded=0;whiteSpace=wrap;html=1;" parent="1" vertex="1">
          <mxGeometry x="970" y="955" width="120" height="60" as="geometry" />
        </mxCell>
        <mxCell id="8mD3NkDmg14V1RQgCwuK-45" value="" style="rounded=0;whiteSpace=wrap;html=1;" parent="1" vertex="1">
          <mxGeometry x="1130" y="890" width="220" height="210" as="geometry" />
        </mxCell>
        <mxCell id="8mD3NkDmg14V1RQgCwuK-46" value="&lt;span id=&quot;docs-internal-guid-59697896-7fff-c1dc-a09e-4b1a4fee0508&quot;&gt;&lt;span style=&quot;font-size: 11pt ; font-family: &amp;#34;arial&amp;#34; ; background-color: transparent ; vertical-align: baseline&quot;&gt;Notifications(mobile_number, message, type, generatedAt, status, sentAt)&lt;br&gt;&lt;span id=&quot;docs-internal-guid-09f0f053-7fff-7d87-d453-37a4a22d067e&quot;&gt;&lt;span style=&quot;font-size: 11pt ; font-family: &amp;#34;arial&amp;#34; ; background-color: transparent ; vertical-align: baseline&quot;&gt;UserNotificationTokens(user_id, token_type, token)&lt;/span&gt;&lt;/span&gt;&lt;br&gt;&lt;/span&gt;&lt;/span&gt;" style="shape=datastore;whiteSpace=wrap;html=1;" parent="1" vertex="1">
          <mxGeometry x="1150" y="950" width="190" height="150" as="geometry" />
        </mxCell>
        <mxCell id="8mD3NkDmg14V1RQgCwuK-47" value="Notification Service" style="text;html=1;strokeColor=none;fillColor=none;align=center;verticalAlign=middle;whiteSpace=wrap;rounded=0;" parent="1" vertex="1">
          <mxGeometry x="1155" y="887.5" width="170" height="20" as="geometry" />
        </mxCell>
        <mxCell id="8mD3NkDmg14V1RQgCwuK-50" value="&lt;span id=&quot;docs-internal-guid-531f3c76-7fff-180f-1106-949c16be48b4&quot;&gt;&lt;span style=&quot;font-family: &amp;#34;arial&amp;#34; ; background-color: transparent ; vertical-align: baseline&quot;&gt;&lt;font style=&quot;font-size: 10px&quot;&gt;POST /sendOTP?mobileNumber=&lt;/font&gt;&lt;/span&gt;&lt;/span&gt;" style="text;html=1;strokeColor=none;fillColor=none;align=center;verticalAlign=middle;whiteSpace=wrap;rounded=0;" parent="1" vertex="1">
          <mxGeometry x="612" y="932.5" width="220" height="20" as="geometry" />
        </mxCell>
        <mxCell id="8mD3NkDmg14V1RQgCwuK-51" value="&lt;span id=&quot;docs-internal-guid-fa60b63a-7fff-8862-ac29-65f412ffba14&quot;&gt;&lt;span style=&quot;font-family: &amp;#34;arial&amp;#34; ; background-color: transparent ; vertical-align: baseline&quot;&gt;&lt;font style=&quot;font-size: 9px&quot;&gt;POST /validaeOTP?mobileNumber=&amp;amp;otp=&lt;/font&gt;&lt;/span&gt;&lt;/span&gt;" style="text;html=1;strokeColor=none;fillColor=none;align=center;verticalAlign=middle;whiteSpace=wrap;rounded=0;" parent="1" vertex="1">
          <mxGeometry x="622" y="952.5" width="210" height="20" as="geometry" />
        </mxCell>
        <mxCell id="8mD3NkDmg14V1RQgCwuK-52" value="&lt;span id=&quot;docs-internal-guid-fa60b63a-7fff-8862-ac29-65f412ffba14&quot;&gt;&lt;span style=&quot;font-family: &amp;#34;arial&amp;#34; ; background-color: transparent ; vertical-align: baseline&quot;&gt;&lt;font style=&quot;font-size: 9px&quot;&gt;POST /validaeOTP?mobileNumber=&amp;amp;otp=&lt;/font&gt;&lt;/span&gt;&lt;/span&gt;" style="text;html=1;strokeColor=none;fillColor=none;align=center;verticalAlign=middle;whiteSpace=wrap;rounded=0;" parent="1" vertex="1">
          <mxGeometry x="655" y="860" width="210" height="20" as="geometry" />
        </mxCell>
        <mxCell id="8mD3NkDmg14V1RQgCwuK-53" value="&lt;span id=&quot;docs-internal-guid-531f3c76-7fff-180f-1106-949c16be48b4&quot;&gt;&lt;span style=&quot;font-family: &amp;#34;arial&amp;#34; ; background-color: transparent ; vertical-align: baseline&quot;&gt;&lt;font style=&quot;font-size: 10px&quot;&gt;POST /sendOTP?mobileNumber=&lt;/font&gt;&lt;/span&gt;&lt;/span&gt;" style="text;html=1;strokeColor=none;fillColor=none;align=center;verticalAlign=middle;whiteSpace=wrap;rounded=0;" parent="1" vertex="1">
          <mxGeometry x="635" y="850" width="220" height="20" as="geometry" />
        </mxCell>
        <mxCell id="8mD3NkDmg14V1RQgCwuK-59" value="Actor" style="shape=umlActor;verticalLabelPosition=bottom;verticalAlign=top;html=1;outlineConnect=0;" parent="1" vertex="1">
          <mxGeometry x="-710" y="-510" width="30" height="60" as="geometry" />
        </mxCell>
        <mxCell id="8mD3NkDmg14V1RQgCwuK-60" value="&lt;span id=&quot;docs-internal-guid-29409451-7fff-c75f-7bf1-f1b9cfd012b3&quot;&gt;&lt;font style=&quot;font-size: 10px&quot;&gt;&lt;p dir=&quot;ltr&quot; style=&quot;line-height: 1.38 ; margin-top: 0pt ; margin-bottom: 0pt&quot;&gt;&lt;span style=&quot;font-family: &amp;#34;arial&amp;#34; ; background-color: transparent ; vertical-align: baseline&quot;&gt;POST /updaeUser?&lt;/span&gt;&lt;/p&gt;&lt;span style=&quot;font-family: &amp;#34;arial&amp;#34;&quot;&gt;mobileNumber&lt;/span&gt;&lt;span style=&quot;font-family: &amp;#34;arial&amp;#34; ; background-color: transparent ; vertical-align: baseline&quot;&gt;&lt;span class=&quot;Apple-tab-span&quot;&gt; &lt;/span&gt;&lt;/span&gt;&lt;span style=&quot;font-family: &amp;#34;arial&amp;#34; ; background-color: transparent ; vertical-align: baseline&quot;&gt;&lt;span class=&quot;Apple-tab-span&quot;&gt; &lt;/span&gt;&lt;/span&gt;&lt;span style=&quot;font-family: &amp;#34;arial&amp;#34; ; background-color: transparent ; vertical-align: baseline&quot;&gt;&lt;span class=&quot;Apple-tab-span&quot;&gt; &lt;/span&gt;&lt;/span&gt;&lt;span style=&quot;font-family: &amp;#34;arial&amp;#34; ; background-color: transparent ; vertical-align: baseline&quot;&gt;{ “name”:””,”profile_status”:”” }&lt;/span&gt;&lt;/font&gt;&lt;/span&gt;&lt;span style=&quot;color: rgba(0 , 0 , 0 , 0) ; font-family: monospace ; font-size: 0px&quot;&gt;%3CmxGraphModel%3E%3Croot%3E%3CmxCell%20id%3D%220%22%2F%3E%3CmxCell%20id%3D%221%22%20parent%3D%220%22%2F%3E%3CmxCell%20id%3D%222%22%20value%3D%22%26lt%3Bspan%20id%3D%26quot%3Bdocs-internal-guid-fa60b63a-7fff-8862-ac29-65f412ffba14%26quot%3B%26gt%3B%26lt%3Bspan%20style%3D%26quot%3Bfont-family%3A%20%26amp%3B%2334%3Barial%26amp%3B%2334%3B%20%3B%20background-color%3A%20transparent%20%3B%20vertical-align%3A%20baseline%26quot%3B%26gt%3B%26lt%3Bfont%20style%3D%26quot%3Bfont-size%3A%209px%26quot%3B%26gt%3BPOST%20%2FvalidaeOTP%3FmobileNumber%3D%26amp%3Bamp%3Botp%3D%26lt%3B%2Ffont%26gt%3B%26lt%3B%2Fspan%26gt%3B%26lt%3B%2Fspan%26gt%3B%22%20style%3D%22text%3Bhtml%3D1%3BstrokeColor%3Dnone%3BfillColor%3Dnone%3Balign%3Dcenter%3BverticalAlign%3Dmiddle%3BwhiteSpace%3Dwrap%3Brounded%3D0%3B%22%20vertex%3D%221%22%20parent%3D%221%22%3E%3CmxGeometry%20x%3D%221230%22%20y%3D%22160%22%20width%3D%22210%22%20height%3D%2220%22%20as%3D%22geometry%22%2F%3E%3C%2FmxCell%3E%3C%2Froot%3E%3C%2FmxGraphModel%3E&lt;/span&gt;" style="text;html=1;strokeColor=none;fillColor=none;align=center;verticalAlign=middle;whiteSpace=wrap;rounded=0;" parent="1" vertex="1">
          <mxGeometry x="605" y="500" width="230" height="20" as="geometry" />
        </mxCell>
        <mxCell id="8mD3NkDmg14V1RQgCwuK-62" value="API Gateway" style="text;html=1;strokeColor=none;fillColor=none;align=center;verticalAlign=middle;whiteSpace=wrap;rounded=0;" parent="1" vertex="1">
          <mxGeometry x="625" y="420" width="200" height="20" as="geometry" />
        </mxCell>
        <mxCell id="8mD3NkDmg14V1RQgCwuK-63" value="&lt;span id=&quot;docs-internal-guid-531f3c76-7fff-180f-1106-949c16be48b4&quot;&gt;&lt;span style=&quot;font-family: &amp;#34;arial&amp;#34; ; background-color: transparent ; vertical-align: baseline&quot;&gt;&lt;font style=&quot;font-size: 10px&quot;&gt;POST /sendOTP?mobileNumber=&lt;/font&gt;&lt;/span&gt;&lt;/span&gt;" style="text;html=1;strokeColor=none;fillColor=none;align=center;verticalAlign=middle;whiteSpace=wrap;rounded=0;" parent="1" vertex="1">
          <mxGeometry x="615" y="460" width="220" height="20" as="geometry" />
        </mxCell>
        <mxCell id="8mD3NkDmg14V1RQgCwuK-64" value="&lt;span id=&quot;docs-internal-guid-29409451-7fff-c75f-7bf1-f1b9cfd012b3&quot;&gt;&lt;font style=&quot;font-size: 10px&quot;&gt;&lt;p dir=&quot;ltr&quot; style=&quot;line-height: 1.38 ; margin-top: 0pt ; margin-bottom: 0pt&quot;&gt;&lt;span style=&quot;font-family: &amp;#34;arial&amp;#34; ; background-color: transparent ; vertical-align: baseline&quot;&gt;POST /registerUser?mobileNumber=&amp;amp;otp=&lt;/span&gt;&lt;/p&gt;&lt;span style=&quot;font-family: &amp;#34;arial&amp;#34; ; background-color: transparent ; vertical-align: baseline&quot;&gt;&lt;span class=&quot;Apple-tab-span&quot;&gt; &lt;/span&gt;&lt;/span&gt;&lt;span style=&quot;font-family: &amp;#34;arial&amp;#34; ; background-color: transparent ; vertical-align: baseline&quot;&gt;&lt;span class=&quot;Apple-tab-span&quot;&gt; &lt;/span&gt;&lt;/span&gt;&lt;span style=&quot;font-family: &amp;#34;arial&amp;#34; ; background-color: transparent ; vertical-align: baseline&quot;&gt;&lt;span class=&quot;Apple-tab-span&quot;&gt; &lt;/span&gt;&lt;/span&gt;&lt;span style=&quot;font-family: &amp;#34;arial&amp;#34; ; background-color: transparent ; vertical-align: baseline&quot;&gt;{ “name”:””,”profile_status”:”” }&lt;/span&gt;&lt;/font&gt;&lt;/span&gt;" style="text;html=1;strokeColor=none;fillColor=none;align=center;verticalAlign=middle;whiteSpace=wrap;rounded=0;" parent="1" vertex="1">
          <mxGeometry x="890" y="-40" width="200" height="20" as="geometry" />
        </mxCell>
        <mxCell id="8mD3NkDmg14V1RQgCwuK-72" value="&lt;span id=&quot;docs-internal-guid-fa60b63a-7fff-8862-ac29-65f412ffba14&quot;&gt;&lt;span style=&quot;font-family: &amp;#34;arial&amp;#34; ; background-color: transparent ; vertical-align: baseline&quot;&gt;&lt;font style=&quot;font-size: 9px&quot;&gt;GEt /generateSessionToken?userId&lt;/font&gt;&lt;/span&gt;&lt;/span&gt;" style="text;html=1;strokeColor=none;fillColor=none;align=center;verticalAlign=middle;whiteSpace=wrap;rounded=0;" parent="1" vertex="1">
          <mxGeometry x="500" y="350" width="250" height="20" as="geometry" />
        </mxCell>
        <mxCell id="8mD3NkDmg14V1RQgCwuK-73" value="&lt;span id=&quot;docs-internal-guid-fa60b63a-7fff-8862-ac29-65f412ffba14&quot;&gt;&lt;span style=&quot;font-family: &amp;#34;arial&amp;#34; ; background-color: transparent ; vertical-align: baseline&quot;&gt;&lt;font style=&quot;font-size: 9px&quot;&gt;GEt /generateSessionToken?userId=&lt;/font&gt;&lt;/span&gt;&lt;/span&gt;" style="text;html=1;strokeColor=none;fillColor=none;align=center;verticalAlign=middle;whiteSpace=wrap;rounded=0;" parent="1" vertex="1">
          <mxGeometry x="445" y="90" width="250" height="20" as="geometry" />
        </mxCell>
        <mxCell id="8mD3NkDmg14V1RQgCwuK-74" value="&lt;span id=&quot;docs-internal-guid-fa60b63a-7fff-8862-ac29-65f412ffba14&quot;&gt;&lt;span style=&quot;font-family: &amp;#34;arial&amp;#34; ; background-color: transparent ; vertical-align: baseline&quot;&gt;&lt;font style=&quot;font-size: 9px&quot;&gt;POST /validateSessionToken?userId=&lt;/font&gt;&lt;/span&gt;&lt;/span&gt;" style="text;html=1;strokeColor=none;fillColor=none;align=center;verticalAlign=middle;whiteSpace=wrap;rounded=0;" parent="1" vertex="1">
          <mxGeometry x="440" y="105" width="250" height="20" as="geometry" />
        </mxCell>
        <mxCell id="j8qgsm1ebVR-KhvxwdN_-5" value="" style="whiteSpace=wrap;html=1;aspect=fixed;" parent="1" vertex="1">
          <mxGeometry x="-330" y="25" width="190" height="190" as="geometry" />
        </mxCell>
        <mxCell id="j8qgsm1ebVR-KhvxwdN_-6" value="&lt;span id=&quot;docs-internal-guid-6f984242-7fff-fa8c-4790-242e402ced37&quot;&gt;&lt;span style=&quot;font-size: 11pt ; font-family: &amp;#34;arial&amp;#34; ; background-color: transparent ; vertical-align: baseline&quot;&gt;LastSeen(user_id, seen_at)&lt;/span&gt;&lt;/span&gt;" style="shape=datastore;whiteSpace=wrap;html=1;" parent="1" vertex="1">
          <mxGeometry x="-308" y="80" width="140" height="130" as="geometry" />
        </mxCell>
        <mxCell id="j8qgsm1ebVR-KhvxwdN_-8" value="Last Seen" style="text;html=1;strokeColor=none;fillColor=none;align=center;verticalAlign=middle;whiteSpace=wrap;rounded=0;" parent="1" vertex="1">
          <mxGeometry x="-280" y="25" width="70" height="20" as="geometry" />
        </mxCell>
        <mxCell id="j8qgsm1ebVR-KhvxwdN_-15" value="&lt;span id=&quot;docs-internal-guid-fa60b63a-7fff-8862-ac29-65f412ffba14&quot;&gt;&lt;span style=&quot;font-family: &amp;#34;arial&amp;#34; ; background-color: transparent ; vertical-align: baseline&quot;&gt;&lt;font style=&quot;font-size: 9px&quot;&gt;POST /validaeOTPAndRegisterDevice?mobileNumber=&amp;amp;otp=&lt;/font&gt;&lt;/span&gt;&lt;/span&gt;" style="text;html=1;strokeColor=none;fillColor=none;align=center;verticalAlign=middle;whiteSpace=wrap;rounded=0;" parent="1" vertex="1">
          <mxGeometry x="585" y="480" width="250" height="20" as="geometry" />
        </mxCell>
        <mxCell id="j8qgsm1ebVR-KhvxwdN_-16" value="&lt;span id=&quot;docs-internal-guid-29409451-7fff-c75f-7bf1-f1b9cfd012b3&quot;&gt;&lt;font style=&quot;font-size: 10px&quot;&gt;&lt;p dir=&quot;ltr&quot; style=&quot;line-height: 1.38 ; margin-top: 0pt ; margin-bottom: 0pt&quot;&gt;&lt;span style=&quot;font-family: &amp;#34;arial&amp;#34; ; background-color: transparent ; vertical-align: baseline&quot;&gt;POST /updaeUser?mobileNumber&lt;/span&gt;&lt;/p&gt;&lt;span style=&quot;font-family: &amp;#34;arial&amp;#34; ; background-color: transparent ; vertical-align: baseline&quot;&gt;&lt;span class=&quot;Apple-tab-span&quot;&gt; &lt;/span&gt;&lt;/span&gt;&lt;span style=&quot;font-family: &amp;#34;arial&amp;#34; ; background-color: transparent ; vertical-align: baseline&quot;&gt;&lt;span class=&quot;Apple-tab-span&quot;&gt; &lt;/span&gt;&lt;/span&gt;&lt;span style=&quot;font-family: &amp;#34;arial&amp;#34; ; background-color: transparent ; vertical-align: baseline&quot;&gt;&lt;span class=&quot;Apple-tab-span&quot;&gt; &lt;/span&gt;&lt;/span&gt;&lt;span style=&quot;font-family: &amp;#34;arial&amp;#34; ; background-color: transparent ; vertical-align: baseline&quot;&gt;{ “name”:””,”profile_status”:”” }&lt;/span&gt;&lt;/font&gt;&lt;/span&gt;&lt;span style=&quot;color: rgba(0 , 0 , 0 , 0) ; font-family: monospace ; font-size: 0px&quot;&gt;%3CmxGraphModel%3E%3Croot%3E%3CmxCell%20id%3D%220%22%2F%3E%3CmxCell%20id%3D%221%22%20parent%3D%220%22%2F%3E%3CmxCell%20id%3D%222%22%20value%3D%22%26lt%3Bspan%20id%3D%26quot%3Bdocs-internal-guid-fa60b63a-7fff-8862-ac29-65f412ffba14%26quot%3B%26gt%3B%26lt%3Bspan%20style%3D%26quot%3Bfont-family%3A%20%26amp%3B%2334%3Barial%26amp%3B%2334%3B%20%3B%20background-color%3A%20transparent%20%3B%20vertical-align%3A%20baseline%26quot%3B%26gt%3B%26lt%3Bfont%20style%3D%26quot%3Bfont-size%3A%209px%26quot%3B%26gt%3BPOST%20%2FvalidaeOTP%3FmobileNumber%3D%26amp%3Bamp%3Botp%3D%26lt%3B%2Ffont%26gt%3B%26lt%3B%2Fspan%26gt%3B%26lt%3B%2Fspan%26gt%3B%22%20style%3D%22text%3Bhtml%3D1%3BstrokeColor%3Dnone%3BfillColor%3Dnone%3Balign%3Dcenter%3BverticalAlign%3Dmiddle%3BwhiteSpace%3Dwrap%3Brounded%3D0%3B%22%20vertex%3D%221%22%20parent%3D%221%22%3E%3CmxGeometry%20x%3D%221230%22%20y%3D%22160%22%20width%3D%22210%22%20height%3D%2220%22%20as%3D%22geometry%22%2F%3E%3C%2FmxCell%3E%3C%2Froot%3E%3C%2FmxGraphModel%3E&lt;/span&gt;" style="text;html=1;strokeColor=none;fillColor=none;align=center;verticalAlign=middle;whiteSpace=wrap;rounded=0;" parent="1" vertex="1">
          <mxGeometry x="825" y="297.5" width="200" height="20" as="geometry" />
        </mxCell>
        <mxCell id="j8qgsm1ebVR-KhvxwdN_-20" value="&lt;span id=&quot;docs-internal-guid-fa60b63a-7fff-8862-ac29-65f412ffba14&quot;&gt;&lt;span style=&quot;font-family: &amp;#34;arial&amp;#34; ; background-color: transparent ; vertical-align: baseline&quot;&gt;&lt;font style=&quot;font-size: 9px&quot;&gt;POST /validateSessionToken?userId=&lt;/font&gt;&lt;/span&gt;&lt;/span&gt;" style="text;html=1;strokeColor=none;fillColor=none;align=center;verticalAlign=middle;whiteSpace=wrap;rounded=0;" parent="1" vertex="1">
          <mxGeometry x="280" y="-200" width="250" height="20" as="geometry" />
        </mxCell>
        <mxCell id="ksUqTmXqopnTyDlyO0wy-1" value="&lt;span id=&quot;docs-internal-guid-8e59fb52-7fff-cd98-8ecb-727c5f12efe0&quot;&gt;&lt;span style=&quot;background-color: transparent ; vertical-align: baseline&quot;&gt;&lt;span style=&quot;font-family: &amp;#34;arial&amp;#34; ; font-size: 11pt&quot;&gt;Messages(id, sender, receiver, sentAt, aes(content),&amp;nbsp;&lt;/span&gt;&lt;span style=&quot;color: rgb(140 , 140 , 140) ; font-style: italic ; background-color: rgb(255 , 255 , 255)&quot;&gt;&lt;font style=&quot;font-size: 11px&quot;&gt;status[RECEIVED_AT_SERVER | RECEIVED_BY_RECEIVER | SEEN_BY_RECEIVER | SENDER_SEEN_READ_RECEIPT&lt;/font&gt;&lt;/span&gt;&lt;span style=&quot;font-family: &amp;#34;jetbrains mono&amp;#34; , monospace ; font-size: 9.8pt ; color: rgb(140 , 140 , 140) ; font-style: italic ; background-color: rgb(255 , 255 , 255)&quot;&gt;]&lt;/span&gt;&lt;span style=&quot;font-family: &amp;#34;arial&amp;#34; ; font-size: 11pt ; background-color: transparent&quot;&gt;)&lt;/span&gt;&lt;br&gt;&lt;/span&gt;&lt;/span&gt;" style="shape=datastore;whiteSpace=wrap;html=1;" parent="1" vertex="1">
          <mxGeometry x="-72" y="20" width="257" height="170" as="geometry" />
        </mxCell>
        <mxCell id="ksUqTmXqopnTyDlyO0wy-3" value="&lt;span id=&quot;docs-internal-guid-997aa57e-7fff-8abe-723d-a1d3ef6436f3&quot;&gt;&lt;span style=&quot;font-size: 11pt ; font-family: &amp;#34;arial&amp;#34; ; background-color: transparent ; vertical-align: baseline&quot;&gt;GroupMessages(id, sender, group_id, sentAt, isReceived, isSeenByReceiver)&lt;/span&gt;&lt;/span&gt;" style="shape=datastore;whiteSpace=wrap;html=1;" parent="1" vertex="1">
          <mxGeometry x="215" y="50" width="145" height="110" as="geometry" />
        </mxCell>
        <mxCell id="ksUqTmXqopnTyDlyO0wy-4" value="Group Messages Query Service" style="rounded=0;whiteSpace=wrap;html=1;" parent="1" vertex="1">
          <mxGeometry x="200" y="245" width="180" height="125" as="geometry" />
        </mxCell>
        <mxCell id="ksUqTmXqopnTyDlyO0wy-5" value="Messages Query Service" style="rounded=0;whiteSpace=wrap;html=1;" parent="1" vertex="1">
          <mxGeometry x="-110" y="240" width="220" height="110" as="geometry" />
        </mxCell>
        <mxCell id="ksUqTmXqopnTyDlyO0wy-17" value="" style="rounded=0;whiteSpace=wrap;html=1;" parent="1" vertex="1">
          <mxGeometry x="640" y="-240" width="210" height="130" as="geometry" />
        </mxCell>
        <mxCell id="ksUqTmXqopnTyDlyO0wy-18" value="&lt;span id=&quot;docs-internal-guid-ea665ca4-7fff-912b-90b4-c4b4e14d5aea&quot;&gt;&lt;p dir=&quot;ltr&quot; style=&quot;line-height: 1.38 ; margin-top: 0pt ; margin-bottom: 0pt&quot;&gt;&lt;span id=&quot;docs-internal-guid-049c1dac-7fff-e237-49ac-3d338f38b93d&quot;&gt;&lt;span style=&quot;font-size: 11pt ; font-family: &amp;#34;arial&amp;#34; ; background-color: transparent ; vertical-align: baseline&quot;&gt;Groups(id, name, group_status)&lt;/span&gt;&lt;/span&gt;&lt;/p&gt;&lt;p dir=&quot;ltr&quot; style=&quot;line-height: 1.38 ; margin-top: 0pt ; margin-bottom: 0pt&quot;&gt;&lt;span style=&quot;font-size: 11pt ; font-family: &amp;#34;arial&amp;#34; ; color: rgb(0 , 0 , 0) ; background-color: transparent ; font-weight: 400 ; font-style: normal ; font-variant: normal ; text-decoration: none ; vertical-align: baseline&quot;&gt;UserGroupMapping(id, user_id, group_id, is_admin)&lt;/span&gt;&lt;/p&gt;&lt;/span&gt;" style="shape=datastore;whiteSpace=wrap;html=1;" parent="1" vertex="1">
          <mxGeometry x="650" y="-110" width="190" height="140" as="geometry" />
        </mxCell>
        <mxCell id="ksUqTmXqopnTyDlyO0wy-19" value="Group Service" style="text;html=1;strokeColor=none;fillColor=none;align=center;verticalAlign=middle;whiteSpace=wrap;rounded=0;" parent="1" vertex="1">
          <mxGeometry x="640" y="-240" width="200" height="20" as="geometry" />
        </mxCell>
        <mxCell id="ksUqTmXqopnTyDlyO0wy-20" value="&lt;span id=&quot;docs-internal-guid-29409451-7fff-c75f-7bf1-f1b9cfd012b3&quot;&gt;&lt;font style=&quot;font-size: 9px&quot;&gt;&lt;p dir=&quot;ltr&quot; style=&quot;line-height: 1.38 ; margin-top: 0pt ; margin-bottom: 0pt&quot;&gt;&lt;span style=&quot;font-family: &amp;#34;arial&amp;#34; ; background-color: transparent ; vertical-align: baseline&quot;&gt;POST /registerGroup&lt;/span&gt;&lt;/p&gt;&lt;span style=&quot;font-family: &amp;#34;arial&amp;#34; ; background-color: transparent ; vertical-align: baseline&quot;&gt;&lt;span class=&quot;Apple-tab-span&quot;&gt; &lt;/span&gt;&lt;/span&gt;&lt;span style=&quot;font-family: &amp;#34;arial&amp;#34; ; background-color: transparent ; vertical-align: baseline&quot;&gt;&lt;span class=&quot;Apple-tab-span&quot;&gt; &lt;/span&gt;&lt;/span&gt;&lt;span style=&quot;font-family: &amp;#34;arial&amp;#34; ; background-color: transparent ; vertical-align: baseline&quot;&gt;&lt;span class=&quot;Apple-tab-span&quot;&gt; &lt;/span&gt;&lt;/span&gt;&lt;span style=&quot;font-family: &amp;#34;arial&amp;#34; ; background-color: transparent ; vertical-align: baseline&quot;&gt;{ “name”:”” }&lt;/span&gt;&lt;/font&gt;&lt;/span&gt;" style="text;html=1;strokeColor=none;fillColor=none;align=center;verticalAlign=middle;whiteSpace=wrap;rounded=0;" parent="1" vertex="1">
          <mxGeometry x="615" y="-220" width="250" height="20" as="geometry" />
        </mxCell>
        <mxCell id="ksUqTmXqopnTyDlyO0wy-28" style="edgeStyle=orthogonalEdgeStyle;rounded=0;orthogonalLoop=1;jettySize=auto;html=1;exitX=0.5;exitY=1;exitDx=0;exitDy=0;" parent="1" source="ksUqTmXqopnTyDlyO0wy-20" target="ksUqTmXqopnTyDlyO0wy-20" edge="1">
          <mxGeometry relative="1" as="geometry" />
        </mxCell>
        <mxCell id="yqy9BGV4hBucA23t-8WJ-1" value="&lt;span style=&quot;font-family: &amp;#34;arial&amp;#34; ; font-size: 10px&quot;&gt;PUT /addUserToGroup/{userId}?groupId=&lt;/span&gt;" style="text;html=1;strokeColor=none;fillColor=none;align=center;verticalAlign=middle;whiteSpace=wrap;rounded=0;" parent="1" vertex="1">
          <mxGeometry x="617" y="525" width="210" height="20" as="geometry" />
        </mxCell>
        <mxCell id="yqy9BGV4hBucA23t-8WJ-2" value="&lt;span style=&quot;font-family: &amp;#34;arial&amp;#34; ; font-size: 10px&quot;&gt;PUT /addUserToGroup/{userId}?groupId=&lt;/span&gt;" style="text;html=1;strokeColor=none;fillColor=none;align=center;verticalAlign=middle;whiteSpace=wrap;rounded=0;" parent="1" vertex="1">
          <mxGeometry x="640" y="-200" width="210" height="20" as="geometry" />
        </mxCell>
        <mxCell id="yqy9BGV4hBucA23t-8WJ-3" value="&lt;span id=&quot;docs-internal-guid-89ca67a6-7fff-e81b-608c-dd40321dd88f&quot;&gt;&lt;span style=&quot;font-family: &amp;#34;arial&amp;#34; ; background-color: transparent ; vertical-align: baseline&quot;&gt;&lt;font style=&quot;font-size: 10px&quot;&gt;GET /fetchAllUserGroups?userId=&lt;/font&gt;&lt;/span&gt;&lt;/span&gt;" style="text;html=1;strokeColor=none;fillColor=none;align=center;verticalAlign=middle;whiteSpace=wrap;rounded=0;" parent="1" vertex="1">
          <mxGeometry x="615" y="540" width="200" height="20" as="geometry" />
        </mxCell>
        <mxCell id="yqy9BGV4hBucA23t-8WJ-4" value="&lt;span id=&quot;docs-internal-guid-89ca67a6-7fff-e81b-608c-dd40321dd88f&quot;&gt;&lt;span style=&quot;font-family: &amp;#34;arial&amp;#34; ; background-color: transparent ; vertical-align: baseline&quot;&gt;&lt;font style=&quot;font-size: 10px&quot;&gt;GET /fetchAllUserGroups?userId=&lt;/font&gt;&lt;/span&gt;&lt;/span&gt;" style="text;html=1;strokeColor=none;fillColor=none;align=center;verticalAlign=middle;whiteSpace=wrap;rounded=0;" parent="1" vertex="1">
          <mxGeometry x="645" y="-180" width="200" height="20" as="geometry" />
        </mxCell>
        <mxCell id="yqy9BGV4hBucA23t-8WJ-6" value="&lt;span id=&quot;docs-internal-guid-9e7313b0-7fff-79bd-0033-a3aaa39fe7b2&quot;&gt;&lt;span style=&quot;font-family: &amp;#34;arial&amp;#34; ; background-color: transparent ; vertical-align: baseline&quot;&gt;&lt;font style=&quot;font-size: 10px&quot;&gt;&amp;nbsp;&amp;nbsp;GET /fetchAllUsersForGroup?groupId=&lt;/font&gt;&lt;/span&gt;&lt;/span&gt;" style="text;html=1;strokeColor=none;fillColor=none;align=center;verticalAlign=middle;whiteSpace=wrap;rounded=0;" parent="1" vertex="1">
          <mxGeometry x="585" y="560" width="250" height="20" as="geometry" />
        </mxCell>
        <mxCell id="yqy9BGV4hBucA23t-8WJ-7" value="&lt;span id=&quot;docs-internal-guid-9e7313b0-7fff-79bd-0033-a3aaa39fe7b2&quot;&gt;&lt;span style=&quot;font-family: &amp;#34;arial&amp;#34; ; background-color: transparent ; vertical-align: baseline&quot;&gt;&lt;font style=&quot;font-size: 10px&quot;&gt;&amp;nbsp;&amp;nbsp;GET /fetchAllUsersForGroup?groupId=&lt;/font&gt;&lt;/span&gt;&lt;/span&gt;" style="text;html=1;strokeColor=none;fillColor=none;align=center;verticalAlign=middle;whiteSpace=wrap;rounded=0;" parent="1" vertex="1">
          <mxGeometry x="620" y="-159" width="250" height="20" as="geometry" />
        </mxCell>
        <mxCell id="yqy9BGV4hBucA23t-8WJ-8" value="" style="endArrow=classic;startArrow=classic;html=1;exitX=1;exitY=1;exitDx=0;exitDy=0;entryX=0.655;entryY=0.05;entryDx=0;entryDy=0;entryPerimeter=0;" parent="1" source="ksUqTmXqopnTyDlyO0wy-17" target="8mD3NkDmg14V1RQgCwuK-62" edge="1">
          <mxGeometry width="50" height="50" relative="1" as="geometry">
            <mxPoint x="790" y="250" as="sourcePoint" />
            <mxPoint x="760" y="410" as="targetPoint" />
            <Array as="points">
              <mxPoint x="850" y="190" />
              <mxPoint x="756" y="190" />
            </Array>
          </mxGeometry>
        </mxCell>
        <mxCell id="yqy9BGV4hBucA23t-8WJ-9" value="&lt;span id=&quot;docs-internal-guid-f406e3c0-7fff-7737-78ef-a9bdb006487c&quot;&gt;&lt;span style=&quot;font-family: &amp;#34;arial&amp;#34; ; background-color: transparent ; vertical-align: baseline&quot;&gt;&lt;font style=&quot;font-size: 10px&quot;&gt;GET /fetchAllNotReceviedMessages?receiverUserId=&amp;amp;from=&lt;/font&gt;&lt;/span&gt;&lt;/span&gt;" style="text;html=1;strokeColor=none;fillColor=none;align=center;verticalAlign=middle;whiteSpace=wrap;rounded=0;" parent="1" vertex="1">
          <mxGeometry x="-102" y="245" width="220" height="20" as="geometry" />
        </mxCell>
        <mxCell id="yqy9BGV4hBucA23t-8WJ-10" value="&lt;span id=&quot;docs-internal-guid-f406e3c0-7fff-7737-78ef-a9bdb006487c&quot;&gt;&lt;span style=&quot;font-family: &amp;#34;arial&amp;#34; ; background-color: transparent ; vertical-align: baseline&quot;&gt;&lt;font style=&quot;font-size: 10px&quot;&gt;GET /&lt;span id=&quot;docs-internal-guid-30ebd85c-7fff-a28f-c2d3-9063bdde3d35&quot;&gt;&lt;span style=&quot;font-family: &amp;#34;arial&amp;#34; ; background-color: transparent ; vertical-align: baseline&quot;&gt;fetchAllNotReceivedMessages&lt;/span&gt;&lt;/span&gt;?userId=&lt;/font&gt;&lt;/span&gt;&lt;/span&gt;" style="text;html=1;strokeColor=none;fillColor=none;align=center;verticalAlign=middle;whiteSpace=wrap;rounded=0;" parent="1" vertex="1">
          <mxGeometry x="570" y="575" width="280" height="20" as="geometry" />
        </mxCell>
        <mxCell id="yqy9BGV4hBucA23t-8WJ-11" value="&lt;span id=&quot;docs-internal-guid-f406e3c0-7fff-7737-78ef-a9bdb006487c&quot;&gt;&lt;span style=&quot;font-family: &amp;#34;arial&amp;#34; ; background-color: transparent ; vertical-align: baseline&quot;&gt;&lt;font style=&quot;font-size: 10px&quot;&gt;GET /fetchAllNotReceviedMessages?receiverUserId=&amp;amp;fromTimetsamp=&lt;/font&gt;&lt;/span&gt;&lt;/span&gt;" style="text;html=1;strokeColor=none;fillColor=none;align=center;verticalAlign=middle;whiteSpace=wrap;rounded=0;" parent="1" vertex="1">
          <mxGeometry x="185" y="250" width="220" height="20" as="geometry" />
        </mxCell>
        <mxCell id="yqy9BGV4hBucA23t-8WJ-13" value="" style="endArrow=classic;startArrow=classic;html=1;exitX=0.462;exitY=1.027;exitDx=0;exitDy=0;exitPerimeter=0;entryX=0.456;entryY=-0.016;entryDx=0;entryDy=0;entryPerimeter=0;" parent="1" source="ksUqTmXqopnTyDlyO0wy-3" target="ksUqTmXqopnTyDlyO0wy-4" edge="1">
          <mxGeometry width="50" height="50" relative="1" as="geometry">
            <mxPoint x="330" y="330" as="sourcePoint" />
            <mxPoint x="380" y="280" as="targetPoint" />
          </mxGeometry>
        </mxCell>
        <mxCell id="yqy9BGV4hBucA23t-8WJ-14" value="&lt;span id=&quot;docs-internal-guid-fd92eebe-7fff-5c6e-8c20-1f9821c7a645&quot;&gt;&lt;span style=&quot;font-family: &amp;#34;arial&amp;#34; ; background-color: transparent ; vertical-align: baseline&quot;&gt;&lt;font style=&quot;font-size: 9px&quot;&gt;GET /fetchAllNotReceivedMessagesFromGroups?userId=&lt;/font&gt;&lt;/span&gt;&lt;/span&gt;" style="text;html=1;strokeColor=none;fillColor=none;align=center;verticalAlign=middle;whiteSpace=wrap;rounded=0;" parent="1" vertex="1">
          <mxGeometry x="585" y="590" width="240" height="20" as="geometry" />
        </mxCell>
        <mxCell id="yqy9BGV4hBucA23t-8WJ-15" value="" style="endArrow=classic;startArrow=classic;html=1;exitX=0.5;exitY=1;exitDx=0;exitDy=0;entryX=0;entryY=1;entryDx=0;entryDy=0;" parent="1" source="ksUqTmXqopnTyDlyO0wy-4" target="yqy9BGV4hBucA23t-8WJ-14" edge="1">
          <mxGeometry width="50" height="50" relative="1" as="geometry">
            <mxPoint x="360" y="450" as="sourcePoint" />
            <mxPoint x="410" y="400" as="targetPoint" />
            <Array as="points">
              <mxPoint x="290" y="610" />
            </Array>
          </mxGeometry>
        </mxCell>
        <mxCell id="yqy9BGV4hBucA23t-8WJ-16" value="&lt;span id=&quot;docs-internal-guid-c61540a4-7fff-73b3-03da-a503dd4c8042&quot;&gt;&lt;span style=&quot;font-family: &amp;#34;arial&amp;#34; ; background-color: transparent ; vertical-align: baseline&quot;&gt;&lt;font style=&quot;font-size: 10px&quot;&gt;GET /getLastSeen?userId=[]&lt;/font&gt;&lt;/span&gt;&lt;/span&gt;" style="text;html=1;strokeColor=none;fillColor=none;align=center;verticalAlign=middle;whiteSpace=wrap;rounded=0;" parent="1" vertex="1">
          <mxGeometry x="-301.5" y="45" width="133" height="20" as="geometry" />
        </mxCell>
        <mxCell id="yqy9BGV4hBucA23t-8WJ-17" value="&lt;span id=&quot;docs-internal-guid-c61540a4-7fff-73b3-03da-a503dd4c8042&quot;&gt;&lt;span style=&quot;font-family: &amp;#34;arial&amp;#34; ; background-color: transparent ; vertical-align: baseline&quot;&gt;&lt;font style=&quot;font-size: 10px&quot;&gt;GET /getLastSeen?userId=[]&lt;/font&gt;&lt;/span&gt;&lt;/span&gt;" style="text;html=1;strokeColor=none;fillColor=none;align=center;verticalAlign=middle;whiteSpace=wrap;rounded=0;" parent="1" vertex="1">
          <mxGeometry x="658" y="610" width="134" height="20" as="geometry" />
        </mxCell>
        <mxCell id="yqy9BGV4hBucA23t-8WJ-20" value="" style="endArrow=classic;startArrow=classic;html=1;exitX=0.5;exitY=0.5;exitDx=0;exitDy=0;exitPerimeter=0;entryX=0;entryY=0.5;entryDx=0;entryDy=0;" parent="1" source="8mD3NkDmg14V1RQgCwuK-59" target="8mD3NkDmg14V1RQgCwuK-15" edge="1">
          <mxGeometry width="50" height="50" relative="1" as="geometry">
            <mxPoint x="-250" y="-140" as="sourcePoint" />
            <mxPoint x="-290" y="-350" as="targetPoint" />
          </mxGeometry>
        </mxCell>
        <mxCell id="yqy9BGV4hBucA23t-8WJ-22" value="Heartbeat(Server send PING; Client replies with PONG) @ 60sec delay" style="text;html=1;strokeColor=none;fillColor=none;align=center;verticalAlign=middle;whiteSpace=wrap;rounded=0;" parent="1" vertex="1">
          <mxGeometry x="-640" y="-500" width="390" height="20" as="geometry" />
        </mxCell>
        <mxCell id="yqy9BGV4hBucA23t-8WJ-27" value="" style="endArrow=classic;startArrow=classic;html=1;exitX=1;exitY=0.5;exitDx=0;exitDy=0;entryX=0.5;entryY=0;entryDx=0;entryDy=0;" parent="1" source="8mD3NkDmg14V1RQgCwuK-63" target="8mD3NkDmg14V1RQgCwuK-33" edge="1">
          <mxGeometry width="50" height="50" relative="1" as="geometry">
            <mxPoint x="930" y="640" as="sourcePoint" />
            <mxPoint x="980" y="590" as="targetPoint" />
            <Array as="points">
              <mxPoint x="860" y="470" />
              <mxPoint x="860" y="880" />
              <mxPoint x="722" y="880" />
            </Array>
          </mxGeometry>
        </mxCell>
        <mxCell id="yqy9BGV4hBucA23t-8WJ-29" value="" style="endArrow=classic;startArrow=classic;html=1;exitX=0.5;exitY=1;exitDx=0;exitDy=0;" parent="1" source="ksUqTmXqopnTyDlyO0wy-5" edge="1">
          <mxGeometry width="50" height="50" relative="1" as="geometry">
            <mxPoint x="370" y="520" as="sourcePoint" />
            <mxPoint x="570" y="590" as="targetPoint" />
            <Array as="points">
              <mxPoint y="590" />
            </Array>
          </mxGeometry>
        </mxCell>
        <mxCell id="yqy9BGV4hBucA23t-8WJ-30" value="" style="endArrow=classic;startArrow=classic;html=1;exitX=0.437;exitY=1.005;exitDx=0;exitDy=0;exitPerimeter=0;" parent="1" source="j8qgsm1ebVR-KhvxwdN_-5" edge="1">
          <mxGeometry width="50" height="50" relative="1" as="geometry">
            <mxPoint x="110" y="440" as="sourcePoint" />
            <mxPoint x="660" y="620" as="targetPoint" />
            <Array as="points">
              <mxPoint x="-247" y="620" />
            </Array>
          </mxGeometry>
        </mxCell>
        <mxCell id="yqy9BGV4hBucA23t-8WJ-31" value="" style="endArrow=classic;startArrow=classic;html=1;entryX=0;entryY=0.5;entryDx=0;entryDy=0;exitX=1;exitY=0.5;exitDx=0;exitDy=0;" parent="1" source="8mD3NkDmg14V1RQgCwuK-33" target="8mD3NkDmg14V1RQgCwuK-44" edge="1">
          <mxGeometry width="50" height="50" relative="1" as="geometry">
            <mxPoint x="850" y="980" as="sourcePoint" />
            <mxPoint x="890" y="970" as="targetPoint" />
          </mxGeometry>
        </mxCell>
        <mxCell id="yqy9BGV4hBucA23t-8WJ-34" value="WebSocket Handler&lt;br&gt;&lt;br&gt;&lt;span&gt;(user-&amp;gt;List(connection))&lt;/span&gt;" style="text;html=1;strokeColor=none;fillColor=none;align=center;verticalAlign=middle;whiteSpace=wrap;rounded=0;" parent="1" vertex="1">
          <mxGeometry x="-97" y="-620" width="170" height="20" as="geometry" />
        </mxCell>
        <mxCell id="yqy9BGV4hBucA23t-8WJ-36" value="/ping" style="text;html=1;strokeColor=none;fillColor=none;align=center;verticalAlign=middle;whiteSpace=wrap;rounded=0;" parent="1" vertex="1">
          <mxGeometry x="-710" y="-540" width="40" height="20" as="geometry" />
        </mxCell>
        <mxCell id="yqy9BGV4hBucA23t-8WJ-37" value="" style="endArrow=classic;html=1;exitX=0;exitY=0.25;exitDx=0;exitDy=0;" parent="1" source="8mD3NkDmg14V1RQgCwuK-15" edge="1">
          <mxGeometry width="50" height="50" relative="1" as="geometry">
            <mxPoint x="-320" y="-400" as="sourcePoint" />
            <mxPoint x="-695" y="-530" as="targetPoint" />
            <Array as="points">
              <mxPoint x="-695" y="-555" />
            </Array>
          </mxGeometry>
        </mxCell>
        <mxCell id="yqy9BGV4hBucA23t-8WJ-38" value="" style="endArrow=classic;html=1;exitX=1;exitY=0.75;exitDx=0;exitDy=0;entryX=0.002;entryY=0.35;entryDx=0;entryDy=0;entryPerimeter=0;" parent="1" source="yqy9BGV4hBucA23t-8WJ-36" target="8mD3NkDmg14V1RQgCwuK-15" edge="1">
          <mxGeometry width="50" height="50" relative="1" as="geometry">
            <mxPoint x="-320" y="-400" as="sourcePoint" />
            <mxPoint x="-270" y="-450" as="targetPoint" />
          </mxGeometry>
        </mxCell>
        <mxCell id="yqy9BGV4hBucA23t-8WJ-39" value="/pong?userId=" style="text;html=1;strokeColor=none;fillColor=none;align=center;verticalAlign=middle;whiteSpace=wrap;rounded=0;" parent="1" vertex="1">
          <mxGeometry x="-240" y="-530" width="90" height="20" as="geometry" />
        </mxCell>
        <mxCell id="yqy9BGV4hBucA23t-8WJ-40" value="" style="rounded=0;whiteSpace=wrap;html=1;" parent="1" vertex="1">
          <mxGeometry x="120" y="-1050" width="410" height="190" as="geometry" />
        </mxCell>
        <mxCell id="yqy9BGV4hBucA23t-8WJ-41" value="WebSocket Manager" style="text;html=1;strokeColor=none;fillColor=none;align=center;verticalAlign=middle;whiteSpace=wrap;rounded=0;" parent="1" vertex="1">
          <mxGeometry x="274" y="-1050" width="140" height="20" as="geometry" />
        </mxCell>
        <mxCell id="yqy9BGV4hBucA23t-8WJ-43" value="txt file&lt;br&gt;A lb.whatsapp.com &lt;br&gt;&amp;lt;IP_Address_of_domain_name_geographical_load_balancer&amp;gt;&lt;br&gt;&amp;lt;IP_Address_of_domain_name_geographical_load_balancer&amp;gt;&lt;br&gt;&amp;lt;IP_Address_of_domain_name_geographical_load_balancer&amp;gt;&lt;br&gt;&amp;lt;IP_Address_of_domain_name_geographical_load_balancer&amp;gt;" style="rounded=0;whiteSpace=wrap;html=1;" parent="1" vertex="1">
          <mxGeometry x="-1210" y="-440" width="360" height="200" as="geometry" />
        </mxCell>
        <mxCell id="yqy9BGV4hBucA23t-8WJ-45" value="" style="endArrow=classic;startArrow=classic;html=1;exitX=0.5;exitY=0;exitDx=0;exitDy=0;" parent="1" source="yqy9BGV4hBucA23t-8WJ-43" edge="1">
          <mxGeometry width="50" height="50" relative="1" as="geometry">
            <mxPoint x="-800" y="-610" as="sourcePoint" />
            <mxPoint x="-710" y="-490" as="targetPoint" />
            <Array as="points">
              <mxPoint x="-1030" y="-490" />
              <mxPoint x="-790" y="-490" />
            </Array>
          </mxGeometry>
        </mxCell>
        <mxCell id="yqy9BGV4hBucA23t-8WJ-47" value="Domain Name Service" style="text;html=1;strokeColor=none;fillColor=none;align=center;verticalAlign=middle;whiteSpace=wrap;rounded=0;" parent="1" vertex="1">
          <mxGeometry x="-1090" y="-430" width="140" height="20" as="geometry" />
        </mxCell>
        <mxCell id="yqy9BGV4hBucA23t-8WJ-48" value="" style="rounded=0;whiteSpace=wrap;html=1;" parent="1" vertex="1">
          <mxGeometry x="-750" y="-325" width="280" height="190" as="geometry" />
        </mxCell>
        <mxCell id="yqy9BGV4hBucA23t-8WJ-49" value="DNS Geographical Load Balancer" style="text;html=1;strokeColor=none;fillColor=none;align=center;verticalAlign=middle;whiteSpace=wrap;rounded=0;" parent="1" vertex="1">
          <mxGeometry x="-700" y="-320" width="190" height="20" as="geometry" />
        </mxCell>
        <mxCell id="yqy9BGV4hBucA23t-8WJ-51" value="chat.whatsapp.com &amp;lt;IP_Adress&amp;gt;, &amp;lt;Goe_location&amp;gt;" style="text;html=1;strokeColor=none;fillColor=none;align=center;verticalAlign=middle;whiteSpace=wrap;rounded=0;" parent="1" vertex="1">
          <mxGeometry x="-752.5" y="-220" width="285" height="20" as="geometry" />
        </mxCell>
        <mxCell id="yqy9BGV4hBucA23t-8WJ-52" value="chat.whatsapp.com &amp;lt;IP_Adress&amp;gt;, &amp;lt;Goe_location&amp;gt;" style="text;html=1;strokeColor=none;fillColor=none;align=center;verticalAlign=middle;whiteSpace=wrap;rounded=0;" parent="1" vertex="1">
          <mxGeometry x="-752.5" y="-200" width="285" height="20" as="geometry" />
        </mxCell>
        <mxCell id="yqy9BGV4hBucA23t-8WJ-53" value="server.whatsapp.com &amp;lt;IP_Adress&amp;gt;, &amp;lt;Goe_location&amp;gt;" style="text;html=1;strokeColor=none;fillColor=none;align=center;verticalAlign=middle;whiteSpace=wrap;rounded=0;" parent="1" vertex="1">
          <mxGeometry x="-752.5" y="-180" width="285" height="20" as="geometry" />
        </mxCell>
        <mxCell id="yqy9BGV4hBucA23t-8WJ-54" value="" style="endArrow=classic;startArrow=classic;html=1;" parent="1" target="8mD3NkDmg14V1RQgCwuK-59" edge="1">
          <mxGeometry width="50" height="50" relative="1" as="geometry">
            <mxPoint x="-695" y="-330" as="sourcePoint" />
            <mxPoint x="-750" y="-380" as="targetPoint" />
          </mxGeometry>
        </mxCell>
        <mxCell id="yqy9BGV4hBucA23t-8WJ-55" value="/getIPAddress?geolocation=&amp;lt;latitude,longitude&amp;gt;" style="text;html=1;strokeColor=none;fillColor=none;align=center;verticalAlign=middle;whiteSpace=wrap;rounded=0;" parent="1" vertex="1">
          <mxGeometry x="-780" y="-390" width="260" height="20" as="geometry" />
        </mxCell>
        <mxCell id="yqy9BGV4hBucA23t-8WJ-56" value="/getIPAddress?geolocation=&amp;lt;latitude,longitude&amp;gt;" style="text;html=1;strokeColor=none;fillColor=none;align=center;verticalAlign=middle;whiteSpace=wrap;rounded=0;" parent="1" vertex="1">
          <mxGeometry x="-740" y="-300" width="260" height="20" as="geometry" />
        </mxCell>
        <mxCell id="yqy9BGV4hBucA23t-8WJ-57" value="server.whatsapp.com &amp;lt;IP_Adress&amp;gt;, &amp;lt;Goe_location&amp;gt;" style="text;html=1;strokeColor=none;fillColor=none;align=center;verticalAlign=middle;whiteSpace=wrap;rounded=0;" parent="1" vertex="1">
          <mxGeometry x="-752.5" y="-160" width="285" height="20" as="geometry" />
        </mxCell>
        <mxCell id="yqy9BGV4hBucA23t-8WJ-59" value="" style="endArrow=classic;startArrow=classic;html=1;exitX=0.75;exitY=0;exitDx=0;exitDy=0;entryX=0.005;entryY=0.142;entryDx=0;entryDy=0;entryPerimeter=0;" parent="1" source="8mD3NkDmg14V1RQgCwuK-15" target="yqy9BGV4hBucA23t-8WJ-40" edge="1">
          <mxGeometry width="50" height="50" relative="1" as="geometry">
            <mxPoint x="240" y="-580" as="sourcePoint" />
            <mxPoint x="116" y="-1010" as="targetPoint" />
            <Array as="points">
              <mxPoint x="90" y="-765" />
              <mxPoint x="90" y="-945" />
              <mxPoint x="90" y="-1023" />
            </Array>
          </mxGeometry>
        </mxCell>
        <mxCell id="yqy9BGV4hBucA23t-8WJ-63" value="" style="shape=datastore;whiteSpace=wrap;html=1;" parent="1" vertex="1">
          <mxGeometry x="232" y="-950" width="190" height="70" as="geometry" />
        </mxCell>
        <mxCell id="yqy9BGV4hBucA23t-8WJ-64" value="Redis" style="text;html=1;strokeColor=none;fillColor=none;align=center;verticalAlign=middle;whiteSpace=wrap;rounded=0;" parent="1" vertex="1">
          <mxGeometry x="307" y="-950" width="40" height="20" as="geometry" />
        </mxCell>
        <mxCell id="yqy9BGV4hBucA23t-8WJ-65" value="userId-&amp;gt;List(WebSocketHandler)" style="text;html=1;strokeColor=none;fillColor=none;align=center;verticalAlign=middle;whiteSpace=wrap;rounded=0;" parent="1" vertex="1">
          <mxGeometry x="190" y="-910" width="270" height="20" as="geometry" />
        </mxCell>
        <mxCell id="yqy9BGV4hBucA23t-8WJ-67" value="GET /isUserConnected?userId=" style="text;html=1;strokeColor=none;fillColor=none;align=center;verticalAlign=middle;whiteSpace=wrap;rounded=0;" parent="1" vertex="1">
          <mxGeometry x="320" y="-1010" width="240" height="20" as="geometry" />
        </mxCell>
        <mxCell id="yqy9BGV4hBucA23t-8WJ-68" value="PUT /connected?userId&amp;amp;socketHandler" style="text;html=1;strokeColor=none;fillColor=none;align=center;verticalAlign=middle;whiteSpace=wrap;rounded=0;" parent="1" vertex="1">
          <mxGeometry x="129" y="-1030" width="218" height="20" as="geometry" />
        </mxCell>
        <mxCell id="yqy9BGV4hBucA23t-8WJ-86" style="edgeStyle=orthogonalEdgeStyle;rounded=0;orthogonalLoop=1;jettySize=auto;html=1;exitX=0.25;exitY=0;exitDx=0;exitDy=0;entryX=0.27;entryY=0.003;entryDx=0;entryDy=0;entryPerimeter=0;" parent="1" source="yqy9BGV4hBucA23t-8WJ-69" target="8mD3NkDmg14V1RQgCwuK-15" edge="1">
          <mxGeometry relative="1" as="geometry" />
        </mxCell>
        <mxCell id="yqy9BGV4hBucA23t-8WJ-87" style="edgeStyle=orthogonalEdgeStyle;rounded=0;orthogonalLoop=1;jettySize=auto;html=1;exitX=1;exitY=0.5;exitDx=0;exitDy=0;entryX=0.5;entryY=0;entryDx=0;entryDy=0;" parent="1" source="yqy9BGV4hBucA23t-8WJ-69" target="8mD3NkDmg14V1RQgCwuK-44" edge="1">
          <mxGeometry relative="1" as="geometry">
            <mxPoint x="790" y="-389" as="targetPoint" />
            <Array as="points">
              <mxPoint x="800" y="-645" />
              <mxPoint x="800" y="-440" />
              <mxPoint x="1150" y="-440" />
              <mxPoint x="1150" y="850" />
              <mxPoint x="1030" y="850" />
            </Array>
          </mxGeometry>
        </mxCell>
        <mxCell id="yqy9BGV4hBucA23t-8WJ-69" value="" style="rounded=0;whiteSpace=wrap;html=1;" parent="1" vertex="1">
          <mxGeometry x="337" y="-725" width="430" height="160" as="geometry" />
        </mxCell>
        <mxCell id="yqy9BGV4hBucA23t-8WJ-70" value="&lt;span id=&quot;docs-internal-guid-57515d0d-7fff-85e0-1af3-6a786a8ae68c&quot;&gt;&lt;p dir=&quot;ltr&quot; style=&quot;line-height: 1.38 ; margin-left: 36pt ; text-indent: 36pt ; margin-top: 0pt ; margin-bottom: 0pt&quot;&gt;&lt;span style=&quot;font-family: &amp;#34;arial&amp;#34; ; background-color: transparent ; vertical-align: baseline&quot;&gt;&lt;font style=&quot;font-size: 10px&quot;&gt;PUT sendMessage?senderId=&amp;amp;receiverId=&amp;amp;type={TYPING,UNTYPED,TEXT}&lt;/font&gt;&lt;/span&gt;&lt;/p&gt;&lt;p dir=&quot;ltr&quot; style=&quot;line-height: 1.38 ; margin-left: 36pt ; text-indent: 36pt ; margin-top: 0pt ; margin-bottom: 0pt&quot;&gt;&lt;font style=&quot;font-size: 10px&quot;&gt;&lt;span style=&quot;font-family: &amp;#34;arial&amp;#34; ; background-color: transparent ; vertical-align: baseline&quot;&gt;&lt;span class=&quot;Apple-tab-span&quot;&gt; &lt;/span&gt;&lt;/span&gt;&lt;span style=&quot;font-family: &amp;#34;arial&amp;#34; ; background-color: transparent ; vertical-align: baseline&quot;&gt;{“content”:””}&lt;/span&gt;&lt;/font&gt;&lt;/p&gt;&lt;div&gt;&lt;span style=&quot;font-size: 11pt ; font-family: &amp;#34;arial&amp;#34; ; background-color: transparent ; vertical-align: baseline&quot;&gt;&lt;br&gt;&lt;/span&gt;&lt;/div&gt;&lt;/span&gt;" style="text;html=1;strokeColor=none;fillColor=none;align=center;verticalAlign=middle;whiteSpace=wrap;rounded=0;" parent="1" vertex="1">
          <mxGeometry x="-340" y="-420" width="460" height="20" as="geometry" />
        </mxCell>
        <mxCell id="yqy9BGV4hBucA23t-8WJ-71" value="&lt;span id=&quot;docs-internal-guid-2f26aba3-7fff-fae7-c558-802217d5aac5&quot;&gt;&lt;p dir=&quot;ltr&quot; style=&quot;line-height: 1.38 ; margin-left: 36pt ; text-indent: 36pt ; margin-top: 0pt ; margin-bottom: 0pt&quot;&gt;&lt;span style=&quot;font-family: &amp;#34;arial&amp;#34; ; background-color: transparent ; vertical-align: baseline&quot;&gt;&lt;font style=&quot;font-size: 10px&quot;&gt;PUT /sendGroupMessage?senderId=&amp;amp;receiverId=&amp;amp;type=&lt;/font&gt;&lt;font style=&quot;font-size: 9px&quot;&gt;{TYPING,UNTYPED,TEXT}&lt;/font&gt;&lt;/span&gt;&lt;/p&gt;&lt;p dir=&quot;ltr&quot; style=&quot;line-height: 1.38 ; margin-left: 36pt ; text-indent: 36pt ; margin-top: 0pt ; margin-bottom: 0pt&quot;&gt;&lt;font style=&quot;font-size: 10px&quot;&gt;&lt;span style=&quot;font-family: &amp;#34;arial&amp;#34; ; background-color: transparent ; vertical-align: baseline&quot;&gt;&lt;span class=&quot;Apple-tab-span&quot;&gt; &lt;/span&gt;&lt;/span&gt;&lt;span style=&quot;font-family: &amp;#34;arial&amp;#34; ; background-color: transparent ; vertical-align: baseline&quot;&gt;{“content”:””}&lt;/span&gt;&lt;/font&gt;&lt;/p&gt;&lt;div&gt;&lt;span style=&quot;font-size: 11pt ; font-family: &amp;#34;arial&amp;#34; ; background-color: transparent ; vertical-align: baseline&quot;&gt;&lt;br&gt;&lt;/span&gt;&lt;/div&gt;&lt;/span&gt;" style="text;html=1;strokeColor=none;fillColor=none;align=center;verticalAlign=middle;whiteSpace=wrap;rounded=0;" parent="1" vertex="1">
          <mxGeometry x="-340" y="-380" width="480" height="20" as="geometry" />
        </mxCell>
        <mxCell id="yqy9BGV4hBucA23t-8WJ-72" value="One to One Message DB Writer and Routing Service" style="text;html=1;strokeColor=none;fillColor=none;align=center;verticalAlign=middle;whiteSpace=wrap;rounded=0;" parent="1" vertex="1">
          <mxGeometry x="372" y="-715" width="380" height="20" as="geometry" />
        </mxCell>
        <mxCell id="yqy9BGV4hBucA23t-8WJ-73" value="&lt;span id=&quot;docs-internal-guid-57515d0d-7fff-85e0-1af3-6a786a8ae68c&quot;&gt;&lt;p dir=&quot;ltr&quot; style=&quot;line-height: 1.38 ; margin-left: 36pt ; text-indent: 36pt ; margin-top: 0pt ; margin-bottom: 0pt&quot;&gt;&lt;span style=&quot;font-family: &amp;#34;arial&amp;#34; ; background-color: transparent ; vertical-align: baseline&quot;&gt;&lt;font style=&quot;font-size: 10px&quot;&gt;POST sendMessage?senderId=&amp;amp;receiverId=&amp;amp;type={TYPING,UNTYPED,TEXT}&lt;/font&gt;&lt;/span&gt;&lt;/p&gt;&lt;p dir=&quot;ltr&quot; style=&quot;line-height: 1.38 ; margin-left: 36pt ; text-indent: 36pt ; margin-top: 0pt ; margin-bottom: 0pt&quot;&gt;&lt;font style=&quot;font-size: 10px&quot;&gt;&lt;span style=&quot;font-family: &amp;#34;arial&amp;#34; ; background-color: transparent ; vertical-align: baseline&quot;&gt;&lt;span class=&quot;Apple-tab-span&quot;&gt; &lt;/span&gt;&lt;/span&gt;&lt;span style=&quot;font-family: &amp;#34;arial&amp;#34; ; background-color: transparent ; vertical-align: baseline&quot;&gt;{“content”:””}&lt;/span&gt;&lt;/font&gt;&lt;/p&gt;&lt;div&gt;&lt;span style=&quot;font-size: 11pt ; font-family: &amp;#34;arial&amp;#34; ; background-color: transparent ; vertical-align: baseline&quot;&gt;&lt;br&gt;&lt;/span&gt;&lt;/div&gt;&lt;/span&gt;" style="text;html=1;strokeColor=none;fillColor=none;align=center;verticalAlign=middle;whiteSpace=wrap;rounded=0;" parent="1" vertex="1">
          <mxGeometry x="237" y="-655" width="460" height="20" as="geometry" />
        </mxCell>
        <mxCell id="yqy9BGV4hBucA23t-8WJ-75" value="" style="rounded=0;whiteSpace=wrap;html=1;" parent="1" vertex="1">
          <mxGeometry x="880" y="-730" width="418" height="170" as="geometry" />
        </mxCell>
        <mxCell id="yqy9BGV4hBucA23t-8WJ-77" value="" style="endArrow=classic;startArrow=classic;html=1;exitX=1;exitY=0.25;exitDx=0;exitDy=0;" parent="1" source="yqy9BGV4hBucA23t-8WJ-40" edge="1">
          <mxGeometry width="50" height="50" relative="1" as="geometry">
            <mxPoint x="590" y="-820" as="sourcePoint" />
            <mxPoint x="570" y="-730" as="targetPoint" />
            <Array as="points">
              <mxPoint x="570" y="-1002" />
            </Array>
          </mxGeometry>
        </mxCell>
        <mxCell id="yqy9BGV4hBucA23t-8WJ-78" value="Group Message DB Writer and Routing Service" style="text;html=1;strokeColor=none;fillColor=none;align=center;verticalAlign=middle;whiteSpace=wrap;rounded=0;" parent="1" vertex="1">
          <mxGeometry x="910" y="-730" width="380" height="20" as="geometry" />
        </mxCell>
        <mxCell id="yqy9BGV4hBucA23t-8WJ-79" value="&lt;span id=&quot;docs-internal-guid-2f26aba3-7fff-fae7-c558-802217d5aac5&quot;&gt;&lt;p dir=&quot;ltr&quot; style=&quot;line-height: 1.38 ; margin-left: 36pt ; text-indent: 36pt ; margin-top: 0pt ; margin-bottom: 0pt&quot;&gt;&lt;span style=&quot;font-family: &amp;#34;arial&amp;#34; ; background-color: transparent ; vertical-align: baseline&quot;&gt;&lt;font style=&quot;font-size: 10px&quot;&gt;POST /sendGroupMessage?senderId=&amp;amp;receiverId=&amp;amp;type=&lt;/font&gt;&lt;font style=&quot;font-size: 9px&quot;&gt;{TYPING,UNTYPED,TEXT}&lt;/font&gt;&lt;/span&gt;&lt;/p&gt;&lt;p dir=&quot;ltr&quot; style=&quot;line-height: 1.38 ; margin-left: 36pt ; text-indent: 36pt ; margin-top: 0pt ; margin-bottom: 0pt&quot;&gt;&lt;font style=&quot;font-size: 10px&quot;&gt;&lt;span style=&quot;font-family: &amp;#34;arial&amp;#34; ; background-color: transparent ; vertical-align: baseline&quot;&gt;&lt;span class=&quot;Apple-tab-span&quot;&gt; &lt;/span&gt;&lt;/span&gt;&lt;span style=&quot;font-family: &amp;#34;arial&amp;#34; ; background-color: transparent ; vertical-align: baseline&quot;&gt;{“content”:””}&lt;/span&gt;&lt;/font&gt;&lt;/p&gt;&lt;div&gt;&lt;span style=&quot;font-size: 11pt ; font-family: &amp;#34;arial&amp;#34; ; background-color: transparent ; vertical-align: baseline&quot;&gt;&lt;br&gt;&lt;/span&gt;&lt;/div&gt;&lt;/span&gt;" style="text;html=1;strokeColor=none;fillColor=none;align=center;verticalAlign=middle;whiteSpace=wrap;rounded=0;" parent="1" vertex="1">
          <mxGeometry x="780" y="-640" width="480" height="20" as="geometry" />
        </mxCell>
        <mxCell id="yqy9BGV4hBucA23t-8WJ-81" value="" style="endArrow=classic;startArrow=classic;html=1;entryX=0;entryY=0.5;entryDx=0;entryDy=0;" parent="1" target="yqy9BGV4hBucA23t-8WJ-75" edge="1">
          <mxGeometry width="50" height="50" relative="1" as="geometry">
            <mxPoint x="140" y="-370" as="sourcePoint" />
            <mxPoint x="670" y="-379" as="targetPoint" />
            <Array as="points">
              <mxPoint x="370" y="-370" />
              <mxPoint x="370" y="-490" />
              <mxPoint x="830" y="-490" />
              <mxPoint x="830" y="-645" />
            </Array>
          </mxGeometry>
        </mxCell>
        <mxCell id="yqy9BGV4hBucA23t-8WJ-82" value="userId-&amp;gt;Set(sessionToken)" style="shape=datastore;whiteSpace=wrap;html=1;" parent="1" vertex="1">
          <mxGeometry x="10" y="-555" width="190" height="70" as="geometry" />
        </mxCell>
        <mxCell id="yqy9BGV4hBucA23t-8WJ-83" value="Redis" style="text;html=1;strokeColor=none;fillColor=none;align=center;verticalAlign=middle;whiteSpace=wrap;rounded=0;" parent="1" vertex="1">
          <mxGeometry x="89" y="-560" width="40" height="20" as="geometry" />
        </mxCell>
        <mxCell id="yqy9BGV4hBucA23t-8WJ-84" value="&lt;span id=&quot;docs-internal-guid-fa60b63a-7fff-8862-ac29-65f412ffba14&quot;&gt;&lt;span style=&quot;font-family: &amp;#34;arial&amp;#34; ; background-color: transparent ; vertical-align: baseline&quot;&gt;&lt;font style=&quot;font-size: 9px&quot;&gt;GET /getSessionToken?userId=&lt;/font&gt;&lt;/span&gt;&lt;/span&gt;" style="text;html=1;strokeColor=none;fillColor=none;align=center;verticalAlign=middle;whiteSpace=wrap;rounded=0;" parent="1" vertex="1">
          <mxGeometry x="440" y="120" width="250" height="20" as="geometry" />
        </mxCell>
        <mxCell id="yqy9BGV4hBucA23t-8WJ-88" value="Async&amp;nbsp; Notification" style="text;html=1;strokeColor=none;fillColor=none;align=center;verticalAlign=middle;whiteSpace=wrap;rounded=0;" parent="1" vertex="1">
          <mxGeometry x="855" y="-460" width="40" height="20" as="geometry" />
        </mxCell>
        <mxCell id="yqy9BGV4hBucA23t-8WJ-91" value="" style="endArrow=classic;startArrow=classic;html=1;exitX=0.5;exitY=0;exitDx=0;exitDy=0;entryX=0.474;entryY=1.012;entryDx=0;entryDy=0;entryPerimeter=0;" parent="1" source="ksUqTmXqopnTyDlyO0wy-3" target="yqy9BGV4hBucA23t-8WJ-75" edge="1">
          <mxGeometry width="50" height="50" relative="1" as="geometry">
            <mxPoint x="750" y="-300" as="sourcePoint" />
            <mxPoint x="800" y="-350" as="targetPoint" />
            <Array as="points">
              <mxPoint x="288" y="-250" />
              <mxPoint x="470" y="-250" />
              <mxPoint x="470" y="-400" />
              <mxPoint x="1080" y="-400" />
            </Array>
          </mxGeometry>
        </mxCell>
        <mxCell id="yqy9BGV4hBucA23t-8WJ-92" value="Group Messages DB Write" style="text;html=1;strokeColor=none;fillColor=none;align=center;verticalAlign=middle;whiteSpace=wrap;rounded=0;" parent="1" vertex="1">
          <mxGeometry x="1000" y="-530" width="170" height="20" as="geometry" />
        </mxCell>
        <mxCell id="yqy9BGV4hBucA23t-8WJ-94" value="" style="endArrow=classic;html=1;exitX=0.129;exitY=0;exitDx=0;exitDy=0;exitPerimeter=0;entryX=0.098;entryY=-0.017;entryDx=0;entryDy=0;entryPerimeter=0;" parent="1" source="yqy9BGV4hBucA23t-8WJ-78" target="8mD3NkDmg14V1RQgCwuK-15" edge="1">
          <mxGeometry width="50" height="50" relative="1" as="geometry">
            <mxPoint x="490" y="-690" as="sourcePoint" />
            <mxPoint x="540" y="-740" as="targetPoint" />
            <Array as="points">
              <mxPoint x="959" y="-800" />
              <mxPoint x="-197" y="-800" />
            </Array>
          </mxGeometry>
        </mxCell>
        <mxCell id="yqy9BGV4hBucA23t-8WJ-95" value="Send Message in real time(MessageId, Timestamp, Content, FromUser, GroupId)" style="text;html=1;strokeColor=none;fillColor=none;align=center;verticalAlign=middle;whiteSpace=wrap;rounded=0;" parent="1" vertex="1">
          <mxGeometry x="615" y="-820" width="440" height="20" as="geometry" />
        </mxCell>
        <mxCell id="yqy9BGV4hBucA23t-8WJ-96" value="" style="endArrow=classic;startArrow=classic;html=1;exitX=1;exitY=0.25;exitDx=0;exitDy=0;entryX=0.75;entryY=0;entryDx=0;entryDy=0;" parent="1" source="yqy9BGV4hBucA23t-8WJ-40" target="yqy9BGV4hBucA23t-8WJ-78" edge="1">
          <mxGeometry width="50" height="50" relative="1" as="geometry">
            <mxPoint x="530" y="-790" as="sourcePoint" />
            <mxPoint x="580" y="-840" as="targetPoint" />
            <Array as="points">
              <mxPoint x="1195" y="-1002" />
              <mxPoint x="1195" y="-770" />
            </Array>
          </mxGeometry>
        </mxCell>
        <mxCell id="yqy9BGV4hBucA23t-8WJ-98" value="Send Message in real time(MessageId, Timestamp, Content, FromUser, ToUser)" style="text;html=1;strokeColor=none;fillColor=none;align=center;verticalAlign=middle;whiteSpace=wrap;rounded=0;" parent="1" vertex="1">
          <mxGeometry x="105" y="-770" width="440" height="20" as="geometry" />
        </mxCell>
        <mxCell id="yqy9BGV4hBucA23t-8WJ-101" value="" style="endArrow=classic;startArrow=classic;html=1;" parent="1" edge="1">
          <mxGeometry width="50" height="50" relative="1" as="geometry">
            <mxPoint x="11" y="245" as="sourcePoint" />
            <mxPoint x="11" y="189" as="targetPoint" />
          </mxGeometry>
        </mxCell>
        <mxCell id="yqy9BGV4hBucA23t-8WJ-102" value="Cassandra" style="text;html=1;strokeColor=none;fillColor=none;align=center;verticalAlign=middle;whiteSpace=wrap;rounded=0;" parent="1" vertex="1">
          <mxGeometry x="37" y="30" width="40" height="20" as="geometry" />
        </mxCell>
        <mxCell id="yqy9BGV4hBucA23t-8WJ-104" value="Redis" style="text;html=1;strokeColor=none;fillColor=none;align=center;verticalAlign=middle;whiteSpace=wrap;rounded=0;" parent="1" vertex="1">
          <mxGeometry x="550" y="160" width="40" height="20" as="geometry" />
        </mxCell>
        <mxCell id="yqy9BGV4hBucA23t-8WJ-105" value="Cassandra" style="text;html=1;strokeColor=none;fillColor=none;align=center;verticalAlign=middle;whiteSpace=wrap;rounded=0;" parent="1" vertex="1">
          <mxGeometry x="270" y="52.5" width="40" height="20" as="geometry" />
        </mxCell>
        <mxCell id="yqy9BGV4hBucA23t-8WJ-106" value="MySQL" style="text;html=1;strokeColor=none;fillColor=none;align=center;verticalAlign=middle;whiteSpace=wrap;rounded=0;" parent="1" vertex="1">
          <mxGeometry x="727" y="-100" width="40" height="20" as="geometry" />
        </mxCell>
        <mxCell id="yqy9BGV4hBucA23t-8WJ-107" value="MySQL" style="text;html=1;strokeColor=none;fillColor=none;align=center;verticalAlign=middle;whiteSpace=wrap;rounded=0;" parent="1" vertex="1">
          <mxGeometry x="970" y="57.5" width="40" height="20" as="geometry" />
        </mxCell>
        <mxCell id="yqy9BGV4hBucA23t-8WJ-108" value="" style="endArrow=classic;startArrow=classic;html=1;exitX=0.5;exitY=0;exitDx=0;exitDy=0;entryX=0.237;entryY=0.982;entryDx=0;entryDy=0;entryPerimeter=0;" parent="1" source="ksUqTmXqopnTyDlyO0wy-19" target="yqy9BGV4hBucA23t-8WJ-75" edge="1">
          <mxGeometry width="50" height="50" relative="1" as="geometry">
            <mxPoint x="910" y="-270" as="sourcePoint" />
            <mxPoint x="960" y="-320" as="targetPoint" />
            <Array as="points">
              <mxPoint x="740" y="-330" />
              <mxPoint x="979" y="-330" />
            </Array>
          </mxGeometry>
        </mxCell>
        <mxCell id="yqy9BGV4hBucA23t-8WJ-109" value="&lt;span id=&quot;docs-internal-guid-9e7313b0-7fff-79bd-0033-a3aaa39fe7b2&quot;&gt;&lt;span style=&quot;font-family: &amp;#34;arial&amp;#34; ; background-color: transparent ; vertical-align: baseline&quot;&gt;&lt;font style=&quot;font-size: 10px&quot;&gt;&amp;nbsp;&amp;nbsp;GET /fetchAllUsersForGroup?groupId=&lt;/font&gt;&lt;/span&gt;&lt;/span&gt;" style="text;html=1;strokeColor=none;fillColor=none;align=center;verticalAlign=middle;whiteSpace=wrap;rounded=0;" parent="1" vertex="1">
          <mxGeometry x="740" y="-350" width="250" height="20" as="geometry" />
        </mxCell>
        <mxCell id="yqy9BGV4hBucA23t-8WJ-110" value="Cache" style="shape=datastore;whiteSpace=wrap;html=1;" parent="1" vertex="1">
          <mxGeometry x="910" y="-220" width="60" height="60" as="geometry" />
        </mxCell>
        <mxCell id="yqy9BGV4hBucA23t-8WJ-112" value="" style="endArrow=classic;startArrow=classic;html=1;exitX=1;exitY=0;exitDx=0;exitDy=0;entryX=0;entryY=0.7;entryDx=0;entryDy=0;" parent="1" source="yqy9BGV4hBucA23t-8WJ-4" target="yqy9BGV4hBucA23t-8WJ-110" edge="1">
          <mxGeometry width="50" height="50" relative="1" as="geometry">
            <mxPoint x="870" y="-240" as="sourcePoint" />
            <mxPoint x="920" y="-290" as="targetPoint" />
          </mxGeometry>
        </mxCell>
        <mxCell id="yqy9BGV4hBucA23t-8WJ-113" value="Cache" style="shape=datastore;whiteSpace=wrap;html=1;" parent="1" vertex="1">
          <mxGeometry x="910" y="-150" width="60" height="60" as="geometry" />
        </mxCell>
        <mxCell id="yqy9BGV4hBucA23t-8WJ-114" value="" style="endArrow=classic;startArrow=classic;html=1;entryX=0;entryY=0.5;entryDx=0;entryDy=0;" parent="1" target="yqy9BGV4hBucA23t-8WJ-113" edge="1">
          <mxGeometry width="50" height="50" relative="1" as="geometry">
            <mxPoint x="850" y="-120" as="sourcePoint" />
            <mxPoint x="900" y="-120" as="targetPoint" />
          </mxGeometry>
        </mxCell>
        <mxCell id="yqy9BGV4hBucA23t-8WJ-116" value="Cache" style="shape=datastore;whiteSpace=wrap;html=1;" parent="1" vertex="1">
          <mxGeometry x="1140" y="-100" width="60" height="60" as="geometry" />
        </mxCell>
        <mxCell id="yqy9BGV4hBucA23t-8WJ-117" value="Cache" style="shape=datastore;whiteSpace=wrap;html=1;" parent="1" vertex="1">
          <mxGeometry x="1140" y="-20" width="60" height="60" as="geometry" />
        </mxCell>
        <mxCell id="yqy9BGV4hBucA23t-8WJ-118" value="" style="endArrow=classic;startArrow=classic;html=1;entryX=0;entryY=0.3;entryDx=0;entryDy=0;exitX=1.004;exitY=0.218;exitDx=0;exitDy=0;exitPerimeter=0;" parent="1" source="8mD3NkDmg14V1RQgCwuK-24" target="yqy9BGV4hBucA23t-8WJ-116" edge="1">
          <mxGeometry width="50" height="50" relative="1" as="geometry">
            <mxPoint x="1120" y="-9" as="sourcePoint" />
            <mxPoint x="990" y="-130" as="targetPoint" />
          </mxGeometry>
        </mxCell>
        <mxCell id="yqy9BGV4hBucA23t-8WJ-119" value="" style="endArrow=classic;startArrow=classic;html=1;exitX=1;exitY=0.5;exitDx=0;exitDy=0;entryX=0;entryY=0.5;entryDx=0;entryDy=0;" parent="1" source="8mD3NkDmg14V1RQgCwuK-24" target="yqy9BGV4hBucA23t-8WJ-117" edge="1">
          <mxGeometry width="50" height="50" relative="1" as="geometry">
            <mxPoint x="940" y="-80" as="sourcePoint" />
            <mxPoint x="1160" y="50" as="targetPoint" />
          </mxGeometry>
        </mxCell>
        <mxCell id="yqy9BGV4hBucA23t-8WJ-122" value="" style="endArrow=classic;startArrow=classic;html=1;exitX=0.5;exitY=0;exitDx=0;exitDy=0;entryX=0.5;entryY=1;entryDx=0;entryDy=0;" parent="1" source="yqy9BGV4hBucA23t-8WJ-104" target="8mD3NkDmg14V1RQgCwuK-20" edge="1">
          <mxGeometry width="50" height="50" relative="1" as="geometry">
            <mxPoint x="620" y="170" as="sourcePoint" />
            <mxPoint x="670" y="120" as="targetPoint" />
          </mxGeometry>
        </mxCell>
        <mxCell id="yqy9BGV4hBucA23t-8WJ-123" value="" style="endArrow=classic;startArrow=classic;html=1;exitX=0.75;exitY=0;exitDx=0;exitDy=0;entryX=0.558;entryY=1.038;entryDx=0;entryDy=0;entryPerimeter=0;" parent="1" source="yqy9BGV4hBucA23t-8WJ-107" target="8mD3NkDmg14V1RQgCwuK-24" edge="1">
          <mxGeometry width="50" height="50" relative="1" as="geometry">
            <mxPoint x="820" y="110" as="sourcePoint" />
            <mxPoint x="870" y="60" as="targetPoint" />
          </mxGeometry>
        </mxCell>
        <mxCell id="yqy9BGV4hBucA23t-8WJ-124" value="" style="endArrow=classic;html=1;exitX=1;exitY=1;exitDx=0;exitDy=0;exitPerimeter=0;entryX=0.002;entryY=0.927;entryDx=0;entryDy=0;entryPerimeter=0;" parent="1" source="8mD3NkDmg14V1RQgCwuK-59" target="8mD3NkDmg14V1RQgCwuK-15" edge="1">
          <mxGeometry width="50" height="50" relative="1" as="geometry">
            <mxPoint x="-460" y="-470" as="sourcePoint" />
            <mxPoint x="-410" y="-520" as="targetPoint" />
          </mxGeometry>
        </mxCell>
        <mxCell id="yqy9BGV4hBucA23t-8WJ-125" value="PATCH /receivedMessage?messageId=&amp;amp;messageType={OnetoOne|Group}&lt;br&gt;PATCH /seenMessage?messageid=&amp;amp;messageType={OnetoOne|Group}&lt;br&gt;PATCH /seenReadReceipt?messageId=&amp;amp;messageType={OnetoOne|Group}&lt;br&gt;&lt;span style=&quot;color: rgba(0 , 0 , 0 , 0) ; font-family: monospace ; font-size: 0px&quot;&gt;%3CmxGraphModel%3E%3Croot%3E%3CmxCell%20id%3D%220%22%2F%3E%3CmxCell%20id%3D%221%22%20parent%3D%220%22%2F%3E%3CmxCell%20id%3D%222%22%20value%3D%22Cache%22%20style%3D%22shape%3Ddatastore%3BwhiteSpace%3Dwrap%3Bhtml%3D1%3B%22%20vertex%3D%221%22%20parent%3D%221%22%3E%3CmxGeometry%20x%3D%22910%22%20y%3D%22-220%22%20width%3D%2260%22%20height%3D%2260%22%20as%3D%22geometry%22%2F%3E%3C%2FmxCell%3E%3CmxCell%20id%3D%223%22%20value%3D%22Cache%22%20style%3D%22shape%3Ddatastore%3BwhiteSpace%3Dwrap%3Bhtml%3D1%3B%22%20vertex%3D%221%22%20parent%3D%221%22%3E%3CmxGeometry%20x%3D%22910%22%20y%3D%22-150%22%20width%3D%2260%22%20height%3D%2260%22%20as%3D%22geometry%22%2F%3E%3C%2FmxCell%3E%3C%2Froot%3E%3C%2FmxGraphModel%3E&lt;/span&gt;" style="text;html=1;strokeColor=none;fillColor=none;align=center;verticalAlign=middle;whiteSpace=wrap;rounded=0;" parent="1" vertex="1">
          <mxGeometry x="-243" y="-350" width="423" height="60" as="geometry" />
        </mxCell>
        <mxCell id="yqy9BGV4hBucA23t-8WJ-126" value="PATCH /receivedMessage?messageId=&lt;br&gt;PATCH /seenMessage?messageid=&lt;br&gt;PATCH /seenReadReceipt?messageId&lt;span style=&quot;color: rgba(0 , 0 , 0 , 0) ; font-family: monospace ; font-size: 0px&quot;&gt;%3CmxGraphModel%3E%3Croot%3E%3CmxCell%20id%3D%220%22%2F%3E%3CmxCell%20id%3D%221%22%20parent%3D%220%22%2F%3E%3CmxCell%20id%3D%222%22%20value%3D%22Cache%22%20style%3D%22shape%3Ddatastore%3BwhiteSpace%3Dwrap%3Bhtml%3D1%3B%22%20vertex%3D%221%22%20parent%3D%221%22%3E%3CmxGeometry%20x%3D%22910%22%20y%3D%22-220%22%20width%3D%2260%22%20height%3D%2260%22%20as%3D%22geometry%22%2F%3E%3C%2FmxCell%3E%3CmxCell%20id%3D%223%22%20value%3D%22Cache%22%20style%3D%22shape%3Ddatastore%3BwhiteSpace%3Dwrap%3Bhtml%3D1%3B%22%20vertex%3D%221%22%20parent%3D%221%22%3E%3CmxGeometry%20x%3D%22910%22%20y%3D%22-150%22%20width%3D%2260%22%20height%3D%2260%22%20as%3D%22geometry%22%2F%3E%3C%2FmxCell%3E%3C%2Froot%3E%3C%2FmxGraphModel%3E&lt;/span&gt;" style="text;html=1;strokeColor=none;fillColor=none;align=center;verticalAlign=middle;whiteSpace=wrap;rounded=0;" parent="1" vertex="1">
          <mxGeometry x="-510" y="-390" width="280" height="60" as="geometry" />
        </mxCell>
        <mxCell id="yqy9BGV4hBucA23t-8WJ-127" value="" style="endArrow=classic;startArrow=none;html=1;exitX=0.5;exitY=0;exitDx=0;exitDy=0;" parent="1" source="yqy9BGV4hBucA23t-8WJ-128" edge="1">
          <mxGeometry width="50" height="50" relative="1" as="geometry">
            <mxPoint x="230" y="-230" as="sourcePoint" />
            <mxPoint x="440" y="-560" as="targetPoint" />
            <Array as="points" />
          </mxGeometry>
        </mxCell>
        <mxCell id="yqy9BGV4hBucA23t-8WJ-128" value="One to One message DB Write" style="text;html=1;strokeColor=none;fillColor=none;align=center;verticalAlign=middle;whiteSpace=wrap;rounded=0;" parent="1" vertex="1">
          <mxGeometry x="352.5" y="-520" width="175" height="20" as="geometry" />
        </mxCell>
        <mxCell id="yqy9BGV4hBucA23t-8WJ-129" value="" style="endArrow=none;startArrow=classic;html=1;exitX=0.5;exitY=0;exitDx=0;exitDy=0;" parent="1" source="ksUqTmXqopnTyDlyO0wy-1" target="yqy9BGV4hBucA23t-8WJ-128" edge="1">
          <mxGeometry width="50" height="50" relative="1" as="geometry">
            <mxPoint x="56.5" y="20" as="sourcePoint" />
            <mxPoint x="440" y="-560" as="targetPoint" />
            <Array as="points">
              <mxPoint x="57" y="-230" />
              <mxPoint x="440" y="-230" />
              <mxPoint x="440" y="-400" />
            </Array>
          </mxGeometry>
        </mxCell>
        <mxCell id="Ky0qMA8tmpCkN-5JTyLc-1" value="Image Upload Service" style="rounded=0;whiteSpace=wrap;html=1;" vertex="1" parent="1">
          <mxGeometry x="895" y="680" width="210" height="100" as="geometry" />
        </mxCell>
        <mxCell id="Ky0qMA8tmpCkN-5JTyLc-2" value="Image Service" style="rounded=0;whiteSpace=wrap;html=1;" vertex="1" parent="1">
          <mxGeometry x="1240" y="565" width="120" height="60" as="geometry" />
        </mxCell>
        <mxCell id="Ky0qMA8tmpCkN-5JTyLc-14" style="edgeStyle=orthogonalEdgeStyle;rounded=0;orthogonalLoop=1;jettySize=auto;html=1;exitX=0.5;exitY=1;exitDx=0;exitDy=0;entryX=1;entryY=0.75;entryDx=0;entryDy=0;" edge="1" parent="1" source="Ky0qMA8tmpCkN-5JTyLc-5" target="Ky0qMA8tmpCkN-5JTyLc-11">
          <mxGeometry relative="1" as="geometry" />
        </mxCell>
        <mxCell id="Ky0qMA8tmpCkN-5JTyLc-5" value="&lt;pre style=&quot;background-color: rgb(255 , 255 , 255) ; color: rgb(8 , 8 , 8) ; font-family: &amp;#34;jetbrains mono&amp;#34; , monospace&quot;&gt;&lt;span style=&quot;color: rgb(140 , 140 , 140) ; font-style: italic&quot;&gt;&lt;font style=&quot;font-size: 10px&quot;&gt;Images(id, uploader_user_id, url, &lt;/font&gt;&lt;/span&gt;&lt;/pre&gt;&lt;pre style=&quot;background-color: rgb(255 , 255 , 255) ; color: rgb(8 , 8 , 8) ; font-family: &amp;#34;jetbrains mono&amp;#34; , monospace&quot;&gt;&lt;span style=&quot;color: rgb(140 , 140 , 140) ; font-style: italic&quot;&gt;&lt;font style=&quot;font-size: 10px&quot;&gt;file_hash, uploadedAt)&lt;/font&gt;&lt;/span&gt;&lt;/pre&gt;" style="shape=datastore;whiteSpace=wrap;html=1;" vertex="1" parent="1">
          <mxGeometry x="1410" y="555" width="220" height="80" as="geometry" />
        </mxCell>
        <mxCell id="Ky0qMA8tmpCkN-5JTyLc-8" value="" style="endArrow=classic;startArrow=classic;html=1;entryX=0;entryY=0.5;entryDx=0;entryDy=0;exitX=1;exitY=0.5;exitDx=0;exitDy=0;" edge="1" parent="1" source="Ky0qMA8tmpCkN-5JTyLc-2" target="Ky0qMA8tmpCkN-5JTyLc-5">
          <mxGeometry width="50" height="50" relative="1" as="geometry">
            <mxPoint x="1220" y="740" as="sourcePoint" />
            <mxPoint x="1270" y="690" as="targetPoint" />
          </mxGeometry>
        </mxCell>
        <mxCell id="Ky0qMA8tmpCkN-5JTyLc-10" value="" style="endArrow=classic;startArrow=classic;html=1;entryX=0;entryY=1;entryDx=0;entryDy=0;" edge="1" parent="1" target="Ky0qMA8tmpCkN-5JTyLc-2">
          <mxGeometry width="50" height="50" relative="1" as="geometry">
            <mxPoint x="1110" y="680" as="sourcePoint" />
            <mxPoint x="1070" y="680" as="targetPoint" />
          </mxGeometry>
        </mxCell>
        <mxCell id="Ky0qMA8tmpCkN-5JTyLc-19" style="edgeStyle=orthogonalEdgeStyle;rounded=0;orthogonalLoop=1;jettySize=auto;html=1;exitX=0.25;exitY=1;exitDx=0;exitDy=0;entryX=0.5;entryY=0;entryDx=0;entryDy=0;" edge="1" parent="1" source="Ky0qMA8tmpCkN-5JTyLc-11" target="Ky0qMA8tmpCkN-5JTyLc-17">
          <mxGeometry relative="1" as="geometry" />
        </mxCell>
        <mxCell id="Ky0qMA8tmpCkN-5JTyLc-11" value="" style="whiteSpace=wrap;html=1;aspect=fixed;fontFamily=Helvetica;fontSize=12;fontColor=#000000;align=center;strokeColor=#000000;fillColor=#ffffff;" vertex="1" parent="1">
          <mxGeometry x="240" y="1050" width="190" height="140" as="geometry" />
        </mxCell>
        <mxCell id="Ky0qMA8tmpCkN-5JTyLc-12" value="Image Blob Store" style="rounded=0;whiteSpace=wrap;html=1;" vertex="1" parent="1">
          <mxGeometry x="1390" y="710" width="120" height="60" as="geometry" />
        </mxCell>
        <mxCell id="Ky0qMA8tmpCkN-5JTyLc-13" value="" style="endArrow=classic;startArrow=classic;html=1;entryX=0.5;entryY=1;entryDx=0;entryDy=0;exitX=1;exitY=0.5;exitDx=0;exitDy=0;" edge="1" parent="1" source="Ky0qMA8tmpCkN-5JTyLc-11" target="Ky0qMA8tmpCkN-5JTyLc-12">
          <mxGeometry width="50" height="50" relative="1" as="geometry">
            <mxPoint x="1530" y="1180" as="sourcePoint" />
            <mxPoint x="1310" y="930" as="targetPoint" />
            <Array as="points">
              <mxPoint x="1450" y="1160" />
            </Array>
          </mxGeometry>
        </mxCell>
        <mxCell id="Ky0qMA8tmpCkN-5JTyLc-15" value="" style="endArrow=classic;startArrow=classic;html=1;exitX=0.995;exitY=0.44;exitDx=0;exitDy=0;exitPerimeter=0;entryX=0;entryY=0.25;entryDx=0;entryDy=0;" edge="1" parent="1" source="Ky0qMA8tmpCkN-5JTyLc-1" target="Ky0qMA8tmpCkN-5JTyLc-12">
          <mxGeometry width="50" height="50" relative="1" as="geometry">
            <mxPoint x="1210" y="860" as="sourcePoint" />
            <mxPoint x="1260" y="810" as="targetPoint" />
          </mxGeometry>
        </mxCell>
        <mxCell id="Ky0qMA8tmpCkN-5JTyLc-16" value="Image Download Reverse Proxy" style="text;html=1;strokeColor=none;fillColor=none;align=center;verticalAlign=middle;whiteSpace=wrap;rounded=0;" vertex="1" parent="1">
          <mxGeometry x="240" y="1052.5" width="190" height="20" as="geometry" />
        </mxCell>
        <mxCell id="Ky0qMA8tmpCkN-5JTyLc-17" value="Metadata Cache" style="shape=datastore;whiteSpace=wrap;html=1;" vertex="1" parent="1">
          <mxGeometry x="257.5" y="1220" width="60" height="60" as="geometry" />
        </mxCell>
        <mxCell id="Ky0qMA8tmpCkN-5JTyLc-20" value="Image Cache (Sent to Group)" style="rounded=0;whiteSpace=wrap;html=1;" vertex="1" parent="1">
          <mxGeometry x="294" y="1110" width="120" height="60" as="geometry" />
        </mxCell>
        <mxCell id="Ky0qMA8tmpCkN-5JTyLc-21" value="Reverse proxy / Load Balancer" style="rhombus;whiteSpace=wrap;html=1;" vertex="1" parent="1">
          <mxGeometry x="27" y="897.5" width="83" height="80" as="geometry" />
        </mxCell>
        <mxCell id="Ky0qMA8tmpCkN-5JTyLc-27" style="edgeStyle=orthogonalEdgeStyle;rounded=0;orthogonalLoop=1;jettySize=auto;html=1;exitX=0.5;exitY=0.5;exitDx=0;exitDy=0;exitPerimeter=0;" edge="1" parent="1" source="Ky0qMA8tmpCkN-5JTyLc-25">
          <mxGeometry relative="1" as="geometry">
            <mxPoint x="-50" y="943" as="targetPoint" />
          </mxGeometry>
        </mxCell>
        <mxCell id="Ky0qMA8tmpCkN-5JTyLc-25" value="Actor" style="shape=umlActor;verticalLabelPosition=bottom;verticalAlign=top;html=1;outlineConnect=0;" vertex="1" parent="1">
          <mxGeometry x="-385" y="913" width="35" height="60" as="geometry" />
        </mxCell>
        <mxCell id="Ky0qMA8tmpCkN-5JTyLc-28" value="Cassandra" style="text;html=1;strokeColor=none;fillColor=none;align=center;verticalAlign=middle;whiteSpace=wrap;rounded=0;" vertex="1" parent="1">
          <mxGeometry x="1500" y="555" width="40" height="20" as="geometry" />
        </mxCell>
      </root>
    </mxGraphModel>
  </diagram>
</mxfile>
